<?xml version="1.0" encoding="utf-8"?>
<!-- Generator: Adobe Illustrator 16.0.0, SVG Export Plug-In . SVG Version: 6.00 Build 0)  -->
<!DOCTYPE svg PUBLIC "-//W3C//DTD SVG 1.1//EN" "http://www.w3.org/Graphics/SVG/1.1/DTD/svg11.dtd">
<svg version="1.1" id="Слой_1" xmlns="http://www.w3.org/2000/svg" xmlns:xlink="http://www.w3.org/1999/xlink" x="0px" y="0px"
	 width="676px" height="178px" viewBox="180.5 298.5 676 178" enable-background="new 180.5 298.5 676 178" xml:space="preserve">
<text transform="matrix(0.9669 0 0 1 453.1216 455.5256)" fill="#65507C" font-family="'PoiretOne-Regular'" font-size="35.84">jewelry</text>
<path fill="#65507C" d="M237.824,410.623h-36.096V409.6h1.28c2.56,0,4.608-0.769,6.4-2.304c1.792-1.536,2.56-4.097,2.56-7.168
	v-66.816c0-3.072-0.768-5.632-2.56-7.424s-3.84-2.561-6.656-2.561h-1.28v-1.023h31.488c4.096,0,7.936,0.512,11.52,1.536
	c3.584,1.023,6.4,2.56,8.96,4.607s4.352,4.097,5.632,6.656c1.28,2.56,2.048,5.12,2.048,7.936c0,5.377-1.792,9.729-5.632,13.057
	c-3.84,3.328-8.704,5.888-15.104,7.424v0.256c2.816,0.256,5.632,0.769,8.192,1.28c2.56,0.512,5.12,1.28,7.168,2.304
	c2.048,1.024,4.096,2.304,6.144,3.84c1.792,1.536,3.072,3.072,4.352,4.864c1.28,1.792,2.048,3.584,2.56,5.632
	c0.512,2.048,1.024,4.096,1.024,6.145c0,4.607-1.28,8.447-3.84,11.775s-5.632,5.889-8.704,7.681
	C252.416,409.6,246.016,410.623,237.824,410.623z M221.952,362.752h6.4c5.12,0,8.704-0.513,11.008-1.536
	c1.28-0.769,2.816-1.536,4.352-2.561c1.536-1.023,2.816-2.815,4.352-5.376c1.536-2.56,2.048-5.376,2.048-8.704
	c0-2.56-0.512-5.12-1.28-7.424c-1.024-2.304-2.304-4.607-4.096-6.399s-3.84-3.328-6.144-4.353c-2.304-1.024-5.12-1.536-7.936-1.536
	c-2.56,0-5.376,0.512-8.448,1.28v36.608H221.952z M231.936,365.568h-9.984v31.744c0,2.048,0.256,3.84,0.768,5.376
	c0.512,1.536,1.792,2.56,3.84,3.584s5.12,1.536,9.472,1.536c8.96,0,15.104-2.816,18.944-8.192c2.56-3.84,3.84-7.936,3.84-12.544
	c0-3.328-0.768-6.399-2.048-9.216c-1.28-2.816-3.072-4.864-5.376-6.912c-2.304-2.048-5.12-3.328-8.448-4.352
	C239.616,365.568,236.032,365.568,231.936,365.568z"/>
<path fill="#65507C" d="M326.912,323.584h-1.28v-1.28h33.28c5.376,0,9.984,0.768,13.568,2.304c3.84,1.536,6.656,3.328,8.704,5.888
	c2.048,2.305,3.584,4.864,4.352,7.425c0.768,2.56,1.28,5.119,1.28,7.68c0,3.328-0.768,6.144-2.304,9.216
	c-1.536,2.816-3.584,5.376-6.656,7.68c-3.072,2.049-6.912,3.584-11.264,4.353v0.256c5.632,2.56,11.008,7.68,15.872,15.36
	l8.704,13.567c3.84,6.145,7.168,9.984,9.472,11.521c2.304,1.536,4.608,2.56,6.912,2.815v1.024h-17.408
	c-0.768-0.769-1.536-1.792-2.048-2.56c-0.768-0.769-1.28-1.793-2.048-2.561c-0.512-0.512-1.024-1.536-2.048-2.816
	c-0.768-1.279-1.28-1.792-1.536-2.048L370.944,384c-2.304-3.584-4.608-6.4-7.168-8.704c-2.304-2.305-4.608-3.841-6.656-4.864
	c-2.048-1.024-4.096-1.536-5.632-1.792c-1.792-0.256-3.584-0.256-5.888-0.256v32.256c0,6.399,3.584,9.472,10.496,9.728v1.024h-30.72
	V409.6c1.792,0,3.584-0.512,5.12-1.024c1.536-0.512,2.816-1.536,3.584-3.071c1.024-1.536,1.536-3.328,1.536-5.633v-66.815
	c0-3.584-1.024-5.888-2.816-7.424C331.264,324.352,329.216,323.584,326.912,323.584z M345.856,365.312h5.376
	c5.632,0,10.496-0.768,14.08-2.304s6.4-3.584,7.936-6.4s2.56-6.144,2.56-10.24c0-3.328-0.768-6.655-2.304-9.983
	s-4.096-5.889-7.68-8.192s-8.448-3.328-14.336-3.328c-2.56,0-4.352,0.256-6.144,0.513v39.936H345.856z"/>
<path fill="#65507C" d="M507.392,321.28l28.929,75.776c1.536,3.84,3.071,6.656,4.352,8.448s2.561,2.815,3.84,3.328
	c1.28,0.512,2.816,0.768,4.864,1.023v1.024h-31.488v-1.28c3.328,0,5.632-0.256,7.424-0.769c1.792-0.512,2.561-2.048,2.561-4.607
	c0-1.28-0.512-3.072-1.28-5.376c-0.256-0.256-0.256-0.512-0.256-0.769l-8.448-23.552h-33.28l-7.68,21.76
	c-1.023,3.072-1.536,5.376-1.536,7.168c0,2.561,0.769,4.097,2.048,4.864c1.28,0.769,3.328,1.28,5.633,1.28v1.023h-22.528V409.6
	c3.328-0.256,5.888-1.536,7.68-3.328c2.048-2.048,3.584-4.864,5.12-8.96l27.136-76.032H507.392z M485.632,371.455h30.72
	l-15.615-41.983h-0.256L485.632,371.455z"/>
<path fill="#65507C" d="M686.336,322.304v1.023c-2.56,0.257-4.352,1.024-6.144,2.305c-1.792,1.279-3.072,2.815-4.097,4.863
	c-1.023,2.049-2.304,4.608-3.84,7.937c-0.256,0.256-0.512,0.768-0.768,1.536l-27.904,73.216h-1.024l-32.768-79.36
	c0-0.256,0-0.512-0.256-0.768c-1.28-3.328-2.816-5.888-5.12-7.424c-2.048-1.536-4.608-2.305-7.68-2.305v-1.023h31.744v1.023
	c-2.561,0.257-4.864,0.769-6.4,1.536c-1.536,0.769-2.304,2.561-2.304,5.12c0,0.769,0.256,2.304,1.023,4.353
	c0,0.256,0.256,0.512,0.256,0.512s0,0.512,0.257,0.512l25.344,61.952h0.256l21.76-57.856c1.536-3.84,2.304-6.911,2.304-8.96
	c0-3.071-0.768-5.119-2.304-5.888c-1.536-0.768-3.584-1.28-6.399-1.536v-1.023h24.063V322.304z"/>
<path fill="#65507C" d="M843.776,366.592c0,8.191-2.305,15.872-6.656,23.04c-4.353,7.168-10.496,12.8-18.176,16.896
	c-7.681,4.096-16.385,6.4-25.601,6.4c-9.472,0-18.176-2.048-25.855-6.4c-7.937-4.096-14.08-9.983-18.433-17.151
	c-4.352-7.169-6.655-14.849-6.655-23.297c0-6.399,1.279-12.544,4.096-18.176c2.56-5.632,6.399-10.752,11.264-14.848
	c4.864-4.097,10.24-7.424,16.384-9.729c6.145-2.304,12.544-3.584,19.2-3.584s12.8,1.024,18.944,3.328
	c6.144,2.304,11.52,5.376,16.384,9.729c4.864,4.352,8.704,9.216,11.264,14.848C842.496,353.28,843.776,359.68,843.776,366.592z
	 M832.256,366.848c0-11.776-2.304-20.992-6.912-27.648c-4.607-6.655-9.728-11.008-15.616-13.312
	c-5.888-2.304-11.52-3.328-16.64-3.328c-4.096,0-8.192,0.512-12.544,1.792s-8.704,3.328-12.8,6.656s-7.424,7.68-10.24,13.567
	c-2.816,5.889-4.096,13.057-4.096,21.761c0,7.68,1.023,14.336,3.328,19.968c2.304,5.632,5.119,10.24,9.216,13.824
	c3.84,3.584,8.191,6.144,12.8,7.68s9.472,2.304,14.592,2.304c4.608,0,8.96-0.768,13.568-2.304c4.607-1.536,8.704-3.84,12.544-7.168
	s6.912-7.68,9.216-13.568C830.976,381.951,832.256,375.039,832.256,366.848z"/>
</svg>
