<?xml version="1.0" encoding="utf-8"?>
<!-- Generator: Adobe Illustrator 16.0.0, SVG Export Plug-In . SVG Version: 6.00 Build 0)  -->
<!DOCTYPE svg PUBLIC "-//W3C//DTD SVG 1.1//EN" "http://www.w3.org/Graphics/SVG/1.1/DTD/svg11.dtd">
<svg version="1.1" id="Capa_1" xmlns="http://www.w3.org/2000/svg" xmlns:xlink="http://www.w3.org/1999/xlink" x="0px" y="0px"
	 width="767.603px" height="768px" viewBox="128 0 767.603 768" enable-background="new 128 0 767.603 768" xml:space="preserve">
<g>
	<g>
		<path fill="#5EADC6" d="M512,768c-35.328,0-69.376-4.608-102.144-13.824c-32.768-9.221-63.36-22.146-91.776-38.784
			s-54.272-36.608-77.568-59.904c-23.296-23.293-43.264-49.15-59.904-77.566c-16.64-28.419-29.568-59.01-38.784-91.777
			C132.608,453.376,128,419.326,128,384c0-35.328,4.608-69.378,13.824-102.146c9.216-32.768,22.144-63.358,38.784-91.774
			s36.608-54.272,59.904-77.568c23.296-23.296,49.152-43.264,77.568-59.904c28.416-16.64,59.008-29.566,91.776-38.782
			C442.624,4.608,476.672,0,512,0c52.736,0,102.528,10.11,149.376,30.336c46.848,20.224,87.552,47.616,122.112,82.176
			c34.56,34.56,61.952,75.264,82.176,122.112C885.888,281.472,896,331.264,896,384c0,35.326-4.608,69.376-13.824,102.144
			c-9.22,32.765-22.144,63.356-38.784,91.776c-16.64,28.416-36.606,54.271-59.902,77.566
			c-23.294,23.296-49.152,43.269-77.568,59.904c-28.418,16.64-59.008,29.568-91.778,38.784C581.376,763.392,547.328,768,512,768z
			 M697.088,225.792H333.056c-3.584,0-6.656,1.15-9.216,3.456c-2.56,2.304-3.84,5.504-3.84,9.6v40.704
			c0,2.048,0.768,3.072,2.304,3.072L513.536,391.68l1.54,0.768c1.02,0,1.792-0.256,2.304-0.768l185.088-109.056
			c1.021-0.514,1.792-0.77,2.305-0.77c0.509,0,1.279-0.256,2.305-0.768c2.048,0,3.071-1.024,3.071-3.072v-39.168
			c0-4.096-1.281-7.296-3.845-9.6C703.741,226.944,700.672,225.792,697.088,225.792z M435.968,389.376
			c0.513-0.514,0.77-1.281,0.77-2.306c0-1.539-0.514-2.304-1.536-2.304l-109.825-62.978c-1.536-0.512-2.816-0.512-3.84,0
			c-1.024,0-1.536,0.77-1.536,2.306v165.119c0,1.54,0.768,2.561,2.304,3.071h1.536c1.024,0,1.536-0.256,1.536-0.768L435.968,389.376
			z M569.6,401.662c-0.512-1.539-1.795-1.792-3.844-0.768l-42.239,24.576c-5.12,3.072-10.491,3.072-16.128,0l-36.863-20.732
			c-1.536-1.023-2.816-1.023-3.841,0L326.14,535.299c-0.512,0.509-0.768,1.536-0.768,3.067c0,0.514,0.512,1.281,1.536,2.306
			c3.072,1.022,5.12,1.539,6.144,1.539h360.193c1.023,0,2.052-0.513,3.072-1.539c0-2.05-0.257-3.324-0.769-3.842L569.6,401.662z
			 M707.84,318.72h-3.067l-104.447,62.208c-1.021,0-1.536,0.768-1.536,2.304c-0.513,0.512-0.257,1.28,0.764,2.301L704,498.432
			c1.024,1.022,1.792,1.54,2.304,1.54h1.536c1.54-1.54,2.309-2.562,2.309-3.072V321.793
			C710.145,320.768,709.376,319.742,707.84,318.72z"/>
	</g>
</g>
</svg>
