<?xml version="1.0" encoding="utf-8"?>
<!-- Generator: Adobe Illustrator 16.0.0, SVG Export Plug-In . SVG Version: 6.00 Build 0)  -->
<!DOCTYPE svg PUBLIC "-//W3C//DTD SVG 1.1//EN" "http://www.w3.org/Graphics/SVG/1.1/DTD/svg11.dtd">
<svg version="1.1" id="Capa_1" xmlns="http://www.w3.org/2000/svg" xmlns:xlink="http://www.w3.org/1999/xlink" x="0px" y="0px"
	 width="485.213px" height="485.213px" viewBox="0 0 485.213 485.213" enable-background="new 0 0 485.213 485.213"
	 xml:space="preserve">
<g>
	<path fill="#5EADC6" d="M242.607,0C108.629,0,0.001,108.628,0.001,242.606c0,133.976,108.628,242.606,242.606,242.606
		s242.604-108.633,242.604-242.606C485.212,108.628,376.585,0,242.607,0z M370.719,353.989l-19.425,19.431
		c-3.468,3.463-13.623,5.624-13.949,5.624c-61.451,0.534-120.621-23.604-164.095-67.08c-43.593-43.618-67.759-102.999-67.11-164.657
		c0-0.028,2.224-9.893,5.689-13.324l19.424-19.427c7.108-7.142,20.762-10.368,30.327-7.168l4.086,1.362
		c9.537,3.196,19.55,13.742,22.185,23.457l9.771,35.861c2.635,9.743-0.919,23.604-8.025,30.712l-12.97,12.973
		c12.734,47.143,49.723,84.139,96.873,96.902l12.965-12.975c7.142-7.142,20.997-10.692,30.72-8.062l35.856,9.806
		c9.717,2.671,20.26,12.621,23.456,22.153l1.363,4.146C381.028,333.262,377.826,346.912,370.719,353.989z"/>
</g>
</svg>
