<?xml version="1.0" encoding="utf-8"?>
<!-- Generator: Adobe Illustrator 16.0.2, SVG Export Plug-In . SVG Version: 6.00 Build 0)  -->
<!DOCTYPE svg PUBLIC "-//W3C//DTD SVG 1.1//EN" "http://www.w3.org/Graphics/SVG/1.1/DTD/svg11.dtd">
<svg version="1.1" id="Layer_1" xmlns="http://www.w3.org/2000/svg" xmlns:xlink="http://www.w3.org/1999/xlink" x="0px" y="0px"
	 width="227px" height="81.25px" viewBox="0 -19.333 227 81.25" enable-background="new 0 -19.333 227 81.25" xml:space="preserve">
<g>
	<path fill="#FFFFFF" d="M121.025,41.874L88.271,11.875l9.602-8.338L87.574-9.391l-16.085-3.91
		c-6.015,5.938-16.689,27.738-16.689,27.738l7.066,8.946l9.171,3.456l7.009-6.085l29.524,35.328c0,0,5.487,0.224,9.547-4.285
		C121.176,47.287,121.025,41.874,121.025,41.874z"/>
	<path fill="#999998" d="M56.98,36.462c0,0,4.002-14.884,15.391-25.82c0,0-0.281,2.292,0.169,4.246c0,0,5.62-9.208,12.234-13.719
		L95.317,2.41L86.973-8.188l-12.251-3.007l6.464,9.472c0,0-2.104,1.73-2.933,2.933l-0.149-3.083
		C78.104-1.875,57.883,13.348,56.98,36.462z"/>
	<path fill="#FFFFFF" d="M92.61-7.512c0,0,12.968-4.962,19.508,0.564c7.21,6.093-10.036,28.189-10.036,28.189l4.962,4.059
		c0,0,21.198-28.641,7.553-36.308C105.804-15.18,92.61-7.512,92.61-7.512z"/>
	<path fill="#FFFFFF" d="M87.574,37.139l4.211,4.735c0,0-18.389,15.994-28.94,10.825c-11.051-5.412,0.902-25.822,0.902-25.822
		l5.863,1.241c0,0-10.826,11.389-8.006,17.365C64.422,51.458,79.343,45.935,87.574,37.139z"/>
	<path fill="#999998" d="M102.232-7.588c0,0,5.752-0.545,7.819,3.458c2.405,4.66-3.232,12.93-3.232,12.93
		S110.728-4.206,102.232-7.588z"/>
	<path fill="#FFFFFF" d="M53.673,17.596l3.307,3.306c0,0-9.396,15.11-2.782,31.121C54.198,52.022,43.524,40.296,53.673,17.596z"/>
	<path fill="#FFFFFF" d="M105.255,60.369L92.993,45.433c-2.401,1.844-15.969,11.915-25.926,11.916c-0.285,0-0.569-0.009-0.844-0.025
		c-4.231,0.194-7.87-3.836-9.546-6.067c0.232,1.626,0.831,4.186,2.37,6.492l0.963,1.446l-1.545-0.795
		c-0.113-0.058-2.8-1.46-5.575-4.675c-2.556-2.963-5.656-8.087-5.907-15.667c-0.238-7.215,2.118-17.302,6.471-27.676
		c4.499-10.728,10.52-20.475,16.95-27.446l0.193-0.209l20.323,6.235l0.764,1.912c1.833-1.319,8.593-5.751,16.684-5.751
		c3.018,0,5.9,0.633,8.565,1.883c3.406,1.596,5.529,4.312,6.308,8.074c0.887,4.274-0.025,9.769-2.63,15.886
		c-2.315,5.437-5.82,10.979-9.893,15.652l14.668,13.444l0.028,0.144c0.065,0.322,1.544,7.923-3.184,13.768
		c-3.372,4.167-9.011,6.319-16.761,6.394L105.255,60.369L105.255,60.369z M93.129,44.177l12.547,15.284
		c7.352-0.107,12.685-2.142,15.847-6.049c4.125-5.091,3.207-11.835,3.032-12.885l-15.098-13.842l0.293-0.332
		c7.67-8.667,14.462-22.128,12.607-31.091c-0.718-3.47-2.671-5.972-5.809-7.441c-2.542-1.191-5.296-1.796-8.181-1.796
		c-8.991,0-16.53,5.856-16.605,5.914l-0.474,0.374l-1.046-2.615l-19.367-5.942C58.111-2.27,47.386,23.01,47.883,38.026
		c0.354,10.709,6.54,16.456,9.474,18.589c-1.707-3.469-1.729-6.853-1.729-7.017V48l0.836,1.364c0.042,0.071,4.544,7.313,9.74,7.058
		l0.026-0.001l0.026,0.001c0.265,0.017,0.536,0.024,0.813,0.024c10.413,0,25.563-11.873,25.715-11.993L93.129,44.177L93.129,44.177z
		"/>
	<path fill="#FFFFFF" d="M5.338,13.235c0.028,0.226-0.198,0.422-0.535,0.506c-0.34,0.086-0.171,0.226-0.114,0.536
		c0.057,0.311-0.084,0.422-0.31,0.226c-0.227-0.196-0.283-0.226-0.733-0.283c-0.452-0.055-0.366,0.113-0.423,0.255
		c-0.056,0.141-0.112,0.224-0.422,0.311c-0.311,0.084-0.17,0.338-0.254,0.592s-0.733,0.169-0.902,0.112
		c-0.168-0.056-0.197-0.591-0.338-0.676c-0.141-0.085-0.281-0.423-0.281-0.423V5.68L5.338,13.235z"/>
	<path fill="#FFFFFF" d="M8.072,16.872c-0.085-0.058-0.367-0.622-0.479-0.622c-0.114,0,0-0.394-0.422-0.365
		c-0.424,0.027-0.509,0.112-0.622,0.365c-0.113,0.255-0.027,0.084-0.309,0.084c-0.283,0-0.753,0.057-0.527-0.113
		c0.227-0.168,0.075-0.225,0.132-0.365c0.055-0.141,0.225-0.282,0.479-0.338c0.253-0.057,0.592,0.029,0.592-0.198
		c0-0.225-0.141-0.507-0.451-0.479c-0.311,0.028-0.451,0-0.648,0.366c-0.198,0.367-0.028,0.536-0.338,0.678
		c-0.311,0.142-0.234,0.074-0.629,0.074c-0.396,0-0.667,0.009-0.667-0.188c0-0.198,0.225-0.366,0.028-0.648
		c-0.197-0.282-0.226-0.451-0.226-0.451s-0.029,0.309-0.141,0.422c-0.113,0.112-0.226,0.452-0.226,0.62
		c0,0.17-0.065,0.094-0.29,0.207c-0.226,0.113-0.353,0.095-0.714,0.601c-0.376,0.526-0.631,0.558-0.771,0.584
		c-0.31,0.055-0.084,0.073-0.283,0.073c-0.046,0-0.1-0.001-0.154-0.003c-0.105-0.212-0.092-0.418-0.145-0.447
		c-0.077-0.038-0.189-0.207-0.284,0c-0.051,0.113-0.073,0.28-0.071,0.425c-0.007-0.001-0.014-0.001-0.022-0.001v1.93
		c0.238,0.027,0.601,0.074,0.733-0.014c0.169-0.112,0.394-0.027,0.45-0.338c0.057-0.309-0.169-0.732,0.338-0.592
		c0.507,0.143,1.128,0.171,1.268,0.171c0.142,0,0.198-0.029,0.423-0.171c0.227-0.14,0.113-0.648,0.565-0.563
		c0.45,0.083,1.635,0.057,1.718,0.057c0.085,0,0.34,0.253,0.452,0.367c0.113,0.112,0.113-0.029,0.309-0.34
		c0.199-0.308,0.565-0.506,0.706-0.535C7.987,17.097,8.158,16.927,8.072,16.872z"/>
	<path fill="#FFFFFF" d="M9.04,21.805c-0.132-0.132-0.283-0.019-0.356-0.396c-0.076-0.375,0.244-0.45,0.451-0.507
		c0.206-0.056,0.055-0.281,0.093-0.544c0.038-0.264,0.009-0.424-0.028-0.555c-0.036-0.131-0.108-0.348-0.295-0.367
		c-0.19-0.018-0.381-0.235-0.267-0.479c0.111-0.244-0.323-0.366-0.452-0.366c-0.132,0-0.536,0.208-0.723,0.208
		c-0.189,0-0.302-0.151-0.471-0.357c-0.17-0.208-0.451,0.32-0.639,0.432c-0.188,0.113-1.184-0.056-1.541-0.056
		c-0.357,0-0.676,0.056-0.845,0.149c-0.169,0.095-0.244,0.377-0.413,0.433c-0.17,0.055-0.32,0.055-0.488-0.169
		c-0.17-0.225-0.357,0.056-0.489,0.206c-0.132,0.152-0.488,0.019-0.752,0.04c-0.264,0.019-0.396,0.188-0.396,0.432
		s-0.525,0.225-0.525,0.225L0.865,40.709h8.438c0,0,0-18.246,0-18.528C9.303,21.899,9.172,21.936,9.04,21.805z M4.755,19.399
		C5,19.361,5.299,19.531,5.394,19.68c0.094,0.151,0.263,0.264,0.47,0.396c0.207,0.131,0,0.471-0.226,0.508
		c-0.225,0.038-0.208-0.133-0.507-0.489c0,0-0.32-0.057-0.545-0.075c-0.226-0.019-0.396-0.132-0.508-0.395
		C3.966,19.361,4.511,19.436,4.755,19.399z M2.613,25.939c-0.133,0.244-0.339,0.281-0.452,0.244
		c-0.111-0.038-0.168-0.264-0.168-0.339s0.262-0.187,0.262-0.187C2.538,25.658,2.745,25.694,2.613,25.939z M3.12,22.312
		c-0.188,0-0.47-0.111-0.544-0.244C2.5,21.936,2.63,21.767,2.48,21.748c-0.149-0.02-0.319-0.17-0.338-0.302
		c-0.018-0.13,0.019-0.394,0.226-0.394s0.451,0.075,0.696,0.075c0.244,0,0.411,0.301,0.411,0.301c0.152,0.3,0.265,0.451,0.096,0.639
		C3.402,22.255,3.309,22.312,3.12,22.312z M4.567,22.876c-0.094,0.075-0.075-0.074-0.263,0.226c-0.188,0.3-0.358,0.394-0.526,0.337
		c-0.169-0.055-0.396-0.432-0.188-0.525c0.207-0.094,0.47-0.094,0.583-0.206c0.113-0.113,0.244-0.207,0.376-0.302
		c0.132-0.094,0.244-0.169,0.376-0.169c0.131,0,0.432-0.188,0.526-0.244s0.47-0.225,0.507-0.113
		c0.039,0.113-0.037,0.188-0.207,0.264c-0.169,0.076-0.395,0.15-0.395,0.224c0,0.265,0.074,0.471-0.245,0.471
		S4.661,22.802,4.567,22.876z M5.958,23.759c-0.076,0.188-0.451,0.301-0.564,0.245C5.282,23.946,5.3,23.628,5.43,23.495
		c0.132-0.132,0.358-0.037,0.358-0.037C5.9,23.533,6.033,23.569,5.958,23.759z M7.347,19.982c-0.186,0.038-0.207,0.132-0.281,0.356
		c-0.075,0.226-0.337,0.15-0.451-0.037c0,0-0.038-0.301-0.056-0.545c-0.019-0.244,0.132-0.208,0.376-0.283
		c0.244-0.076,0.468-0.02,0.639,0.093C7.743,19.68,7.536,19.943,7.347,19.982z M8.795,22.669c-0.038,0.169-0.243,0.094-0.374,0.074
		c-0.132-0.018-0.208-0.168-0.208-0.432c0-0.057,0.224-0.111,0.412-0.111S8.833,22.5,8.795,22.669z"/>
	<path fill="#FFFFFF" d="M18.615,19.014c0,0-0.225-0.028-0.253-0.057c-0.081-0.08-0.592-0.084-0.678-0.339
		c-0.084-0.253,0.114-0.395,0.199-0.704c0.083-0.31-0.199-0.648-0.367-0.958c-0.169-0.311-0.903-0.395-1.184-0.366
		c-0.283,0.027-0.296,0.422-0.381,0.59c-0.085,0.171-0.394,0.31-0.536,0.396c-0.141,0.083-0.761,0.212-1.155,0.212
		s-0.634,0.014-0.888-0.071c-0.253-0.084-0.536,0.114-0.593,0.282c-0.056,0.168-0.464,0.253-0.605,0.282
		c-0.142,0.029-0.521,0.112-1,0.029c-0.479-0.086-0.367-0.453-0.621-0.538c-0.254-0.084-0.422,0.283-0.422,0.451
		c0,0.17,0.113,0.452,0.224,0.733c0.114,0.283,0.311,0.283,0.621,0.366c0.31,0.085,0.564,0.112,0.564,0.424
		c0,0.308-0.057,0.591,0.169,0.899l10.317,17.056V24.595L18.615,19.014z M14.818,19.465c-0.168,0.012-0.43-0.011-0.493-0.104
		c-0.063-0.093-0.136-0.272-0.021-0.345c0.115-0.074,0.491-0.104,0.536-0.116c0.041-0.01,0.125,0.116,0.145,0.189
		C15.037,19.272,14.985,19.455,14.818,19.465z M18.573,21.241c-0.183,0.013-0.437-0.072-0.522-0.354
		c-0.084-0.28,0.174-0.121,0.465-0.294c0.282-0.169,0.409,0.239,0.437,0.381C18.981,21.114,18.755,21.227,18.573,21.241z
		 M20.053,25.103c-0.283,0.085-0.551-0.027-0.551-0.366c0,0,0.24-0.184,0.424-0.226c0.182-0.042,0.422,0.057,0.577,0.239
		C20.658,24.933,20.335,25.018,20.053,25.103z M20.475,23.34c-0.069,0.114-0.563,0.085-0.788,0
		c-0.226-0.085-0.142-0.366,0.168-0.521c0,0,0.381-0.027,0.592,0.098C20.658,23.044,20.546,23.228,20.475,23.34z M12.019,16.701
		c0.113,0,0.592-0.084,0.648-0.394c0.056-0.311,0.394-0.226,0.647-0.226s1.156,0.168,1.241-0.055
		c0.084-0.227,0.282-0.424,0.506-0.538c0.226-0.112,0.396,0,0.564,0c0.17,0,0.479-0.056,0.676-0.196
		c0.198-0.141,0.058-0.594-0.112-0.762c-0.169-0.169-0.902-0.169-0.902-0.366c0-0.198-0.253-0.282-0.423-0.648
		s0.113-0.395,0.255-0.648c0.139-0.254-0.537-0.705-0.705-1.044c-0.169-0.338-0.817-1.24-1.014-1.607
		c-0.198-0.366-0.396-0.253-0.707-0.591c-0.31-0.338,0.057-0.451-0.083-0.705C12.468,8.669,9.34,3.058,9.34,3.058H0.913L7.65,13.799
		c0,0,0.282,0.478,0.394,0.337c0.114-0.141,0-0.396,0.309-0.451c0.312-0.056,0.424,0.535,0.508,0.563
		c0.085,0.028,0.424-0.029,0.706-0.029s0.225,0.368,0.225,0.565c0,0.196,0.311,0.168,0.592,0.168c0.282,0,0.479,0.282,0.564,0.423
		c0.083,0.141-0.367,0.141-0.932,0.028c-0.563-0.113-0.027-0.254-0.394-0.366c-0.366-0.113-0.141,0.394-0.423,0.479
		c-0.281,0.084-0.168-0.169-0.507-0.508c-0.34-0.337-0.281,0.169-0.281,0.169l0.929,1.521c0,0,1.27-0.111,1.41-0.111
		S11.905,16.701,12.019,16.701z M11.681,11.572c0.083-0.197,0.111-0.535,0.224-0.535c0.113,0,0.142,0.338,0.198,0.45
		c0.164,0.33-0.198,0.536-0.283,0.479C11.736,11.909,11.594,11.769,11.681,11.572z M11.398,13.686
		c0.226-0.14,0.254-0.507,0.226-0.619c-0.03-0.113,0.224-0.508,0.31-0.396c0.084,0.111,0.169,0.536,0.451,0.536
		c0.282,0,0.507-0.338,0.706,0.168c0.197,0.508,0.112,0.537,0.366,0.479c0.253-0.055,0.507-0.197,0.677,0
		c0.167,0.199,0.45,0.453,0.112,0.537c-0.339,0.084-0.365,0.198-0.452,0.395c-0.084,0.196-0.367,0.225-0.591,0.225
		c-0.226,0-0.818,0.085-1.071,0c-0.255-0.083-0.312-0.395-0.312-0.395l-0.168-0.141c-0.339-0.113-0.563-0.226-0.563-0.338
		C11.089,14.023,11.173,13.827,11.398,13.686z"/>
	<path fill="#FFFFFF" d="M37.003,2.964l-5.986,10.158c0,0,1.495,0.028,2.086,0.056c0.592,0.029,0.057,0.17,0.395,0.395
		c0.339,0.226,0.535,0.394,0.847,0.93c0.309,0.537-0.958,0.451-1.242,0.479c-0.282,0.028-0.675-0.028-0.761-0.338
		c-0.083-0.311,0.479-0.311,0.592-0.648c0.112-0.339-0.339-0.113-0.733,0.057c-0.396,0.167-0.451,0.225-0.677-0.283
		c-0.224-0.508-0.704,0-0.79,0.058c-0.085,0.056-0.423,0.366-0.592,0.479c-0.168,0.112-0.619,0.309-0.704,0.507
		c-0.085,0.197,0.197,0.536,0.394,0.62c0.198,0.084,0.451,0.056,0.816,0.253c0.367,0.199-0.167,0.367-0.534,0.424
		c-0.366,0.056-0.902-0.083-0.902-0.083l-1.239,1.718c0,0,0.168,0.394,0.479,0.592c0.31,0.197-0.027,0.592-0.141,0.592
		c-0.113,0-0.365-0.085-0.365-0.366c0-0.282-0.396-0.086-0.396-0.086l-3.552,5.752l0.084,13.391c0,0,13.024-21.566,13.277-21.989
		c0.253-0.424,0.451-0.536,0.112-0.536c-0.337,0-0.62,0.366-0.958,0.366c-0.337,0-0.761-0.084-1.042-0.168
		c-0.282-0.085,0.337-0.283,0.563-0.339c0.227-0.056,0.564-0.056,0.733-0.366c0.17-0.311,0.621-0.198,0.958-0.198
		c0.339,0,0.424-0.226,0.424-0.226l6.858-11.201H37.003z M27.345,20.694c0.112-0.244,0.489-0.43,0.638-0.281
		c0.15,0.151,0.15,0.376,0.057,0.525c-0.093,0.152-0.395,0.227-0.395,0.227C27.495,21.185,27.232,20.938,27.345,20.694z
		 M26.029,26.558c-0.15-0.111,0.093-0.179,0.357-0.206c0.187-0.019,0.357,0.037,0.338,0.227
		C26.706,26.766,26.178,26.673,26.029,26.558z M28.152,23.813c-0.206,0.264-0.753,0.434-0.865,0.114
		c-0.112-0.319,0.189-0.677,0.508-0.62C27.895,23.325,28.359,23.552,28.152,23.813z M30.332,20.188
		c-0.093,0.301-0.395,0.507-0.544,0.396c-0.151-0.112-0.283-0.396-0.208-0.489c0.075-0.093,0.319-0.337,0.319-0.337
		C30.087,19.793,30.427,19.888,30.332,20.188z M34.579,17.162c-0.263,0.076-0.356,0.226-0.694,0.038
		c-0.338-0.188-0.414-0.563-0.414-0.563l-0.244-0.056c-0.396,0.019-0.958-0.019-1.09-0.056c-0.132-0.039-0.188-0.32-0.02-0.47
		c0.17-0.15,0.922-0.376,1.242-0.168c0.319,0.206,0.375,0.414,0.527,0.563c0.148,0.151,0.62,0.038,0.713,0.188
		S34.842,17.088,34.579,17.162z M35.65,11.581c-0.169,0-0.376-0.112-0.543-0.112c-0.171,0-0.358-0.227-0.322-0.283
		c0.038-0.055,0.227-0.074,0.376-0.168c0.15-0.093,0.282-0.207,0.413-0.151c0.133,0.058,0.246,0.058,0.32,0.132
		c0.076,0.075,0.076,0.282,0.076,0.282C35.97,11.337,35.82,11.581,35.65,11.581z M39.634,5.774
		c-0.113,0.056-0.488,0.093-0.432-0.038c0.057-0.132,0.132-0.544,0.227-0.544c0.092,0,0.3,0.226,0.3,0.226
		C39.879,5.643,39.747,5.718,39.634,5.774z"/>
	<path fill="#FFFFFF" d="M43.918,39.733c-0.375-0.151,0.038-0.302,0.226-0.527c0.17-0.203,0.372-0.087,0.658-0.118V29.65
		c-0.198-0.084-0.452-0.201-0.488-0.31c-0.042-0.126,0.209-0.264,0.488-0.38V6.018L36.57,19.831v7.907
		c0.168,0.007,0.329,0.037,0.358,0.154c0.056,0.226,0.075,0.49-0.019,0.546c-0.073,0.043-0.233,0.098-0.339,0.12v0.745
		c0.057,0.016,0.114,0.039,0.17,0.074c0.208,0.131,0.507,0.188,0.658,0.357c0.15,0.169,0.338,0.3,0.395,0.487
		c0.057,0.188,0.301,0.377,0.282,0.564c-0.02,0.188,0.168,0.526-0.225,0.563c-0.396,0.038-0.865,0.112-0.865-0.188
		c0-0.301-0.132-0.808-0.132-0.808s-0.14-0.151-0.282-0.175v1.114c0.132,0.074,0.395,0.168,0.358,0.319
		c-0.038,0.15-0.039,0.338-0.227,0.395c-0.046,0.015-0.091,0.027-0.132,0.038v8.644h8.232v-0.705
		C44.563,39.946,44.188,39.84,43.918,39.733z M38.62,36.576c-0.037,0.187-0.208,0.413-0.301,0.169
		c-0.094-0.245,0.038-0.565,0.188-0.471S38.62,36.576,38.62,36.576z M40.009,39.17c-0.186,0-0.656-0.039-0.638-0.303
		c0.02-0.264,0.282-0.168,0.525-0.15c0,0,0.338,0.058,0.527,0.076C40.611,38.812,40.198,39.17,40.009,39.17z M40.273,37.572
		c-0.338,0.018-0.64-0.058-0.564-0.452c0,0,0.169-0.226,0.525-0.3c0.358-0.075,0.488-0.058,0.603,0.206
		C40.949,37.29,40.611,37.553,40.273,37.572z M41.87,39.545c-0.037,0.113-0.583,0.013-0.318-0.17
		C41.853,39.169,41.909,39.432,41.87,39.545z M43.148,33.907c-0.037-0.319,0.076-0.451,0.32-0.488
		c0.244-0.039,0.508,0.056,0.508,0.056c0.131,0.3,0.225,0.488-0.057,0.602C43.637,34.189,43.186,34.226,43.148,33.907z"/>
	<g>
		<path fill="#FFFFFF" d="M156.825,4.853c-0.14,0.014-0.544,0.621-0.715,0.733c-0.167,0.113-0.369,0.643-0.483,1.082
			c-0.111,0.436-0.352,0.267-0.563,0.267s-0.86,0.198-1.186,0c-0.323-0.198,0.185-0.437,0.185-0.62c0-0.185-0.208-0.092-0.605-0.029
			c-0.09,0.014-0.282,0.188-0.184-0.193c0.099-0.378,0.113-0.144,0.338-0.286c0.226-0.141-0.042-0.225-0.466-0.451
			c-0.423-0.226-0.817-0.112-1.057-0.112s-0.128,0.379-0.169,0.592c-0.043,0.211-0.211,0.266-0.338,0.169
			c-0.127-0.099-0.254-0.084-0.438-0.084c-0.183,0-0.521-0.084-0.831-0.113c-0.311-0.028-0.479,0.029-0.649-0.424
			c-0.068-0.183-0.099-0.365-0.04-0.379c0.054-0.014,0.168-0.155,0.42-0.155c0.256,0,0.41,0.084,0.538,0.311
			c0.125,0.224,0.309,0.155,0.619,0.056c0.311-0.1,0.113-0.367,0.113-0.791c0-0.422,0.549-0.295,0.859-0.324
			c0.311-0.028,0.479,0.156,0.564,0.367c0.084,0.212,0.323,0.24,1.015,0.24c0.69,0,0.381,0.31,0.521,0.55
			c0.141,0.239,0.408,0.634,0.692,0.677c0.281,0.042,0.294-0.042,0.365-0.239c0.07-0.198,0.155-0.325,0.267-0.536
			c0.114-0.212-0.351-0.142-0.378-0.396c-0.03-0.254-0.03-0.549,0.182-0.69c0.211-0.141,0.41-0.38-0.113-0.522
			c-0.521-0.141-0.606,0.268-1.17,0.338c-0.563,0.072-0.761-0.155-0.929-0.521c-0.056-0.119-0.079-0.255-0.088-0.386h-4.371
			c-0.065,0.189-0.171,0.417-0.278,0.499c-0.183,0.14-0.267-0.016-0.422-0.085c-0.124-0.057-0.167-0.107-0.222-0.414h-11.177
			c-0.039,0.203-0.105,0.437-0.215,0.518c-0.207,0.149-0.415,0.073-0.716-0.132c-0.161-0.111-0.219-0.245-0.265-0.386h-4.137
			c0.054,0.341,0.065,0.519-0.07,0.724c-0.188,0.282-0.282,0.301-0.489,0.431c-0.207,0.133-0.3,0.396-0.149,0.622
			c0.149,0.225,0.413,0.225,0.619,0.131c0.207-0.093,0.434,0.057,0.47-0.206c0.039-0.264,0.133-0.602,0.339-0.564
			c0.208,0.038,0.602,0.057,0.696,0.169c0.094,0.113,0.263,0.695,0.019,0.866c-0.245,0.168-0.771,0-0.695,0.3
			c0.074,0.3,0.433,0.524,0.601,0.488c0.17-0.037,0.508-0.094,0.544-0.432c0.04-0.338,0.134-0.771,0.34-0.865
			c0.207-0.093,0.771-0.244,0.959-0.113c0.188,0.132,0.695,0.302,0.581,0.714c-0.111,0.414-0.244,0.658-0.019,0.94
			c0.226,0.281,0.602,0.149,0.583,0.375c-0.02,0.226,0.188,0.395-0.169,0.395c-0.359,0-0.771,0.056-0.809-0.057
			c-0.039-0.113-0.283-0.639-0.283-0.771c0-0.131-0.111-0.394-0.281-0.225c-0.168,0.169-0.45,0.244-0.58,0.469
			c-0.133,0.226-0.508,0.339-0.227,0.527c0.282,0.188,0.356,0.319,0.318,0.508c-0.036,0.187-0.582,0.413-0.677,0.489
			c-0.093,0.074-0.319,0.338-0.525,0.263c-0.207-0.076-0.188-0.301-0.263-0.507c-0.075-0.208,0-0.603-0.15-0.715
			c-0.15-0.114-0.245-0.526-0.432-0.526c-0.189,0-0.639,0.037-0.603,0.545c0.038,0.507,0.15,0.545,0,0.601
			c-0.149,0.057-0.451-0.075-0.451,0.244c0,0.321,0.357,0.507,0.433,0.376c0.075-0.132,0.263-0.64,0.563-0.525
			c0.302,0.112,0.546,0.3,0.264,0.45c-0.283,0.151-0.846,0.469-0.958,0.621c-0.095,0.125-0.325,0.44-0.405,0.599v0.149
			c0.096,0.186,0.424,0.629,0.424,0.773c0,0.073,0.104,0.16,0.234,0.235h0.597c0.063-0.168,0.101-0.416,0.089-0.554
			c-0.018-0.227-0.168-0.603,0.113-0.564c0.282,0.037,0.488,0.076,0.451,0.432c-0.033,0.322-0.048,0.547,0.003,0.686h1.036
			c0.007-0.033,0.011-0.066,0.013-0.103c0.02-0.3-0.019-0.603,0.225-0.526c0.246,0.076,0.434,0.112,0.452,0.375
			c0.012,0.162,0.022,0.19,0.025,0.254h13.373c-0.004-0.146,0.173-0.307,0.152-0.461c-0.058-0.394,0-0.45-0.142-0.619
			c-0.141-0.168-0.874-0.084-0.818-0.479c0.057-0.396,0.789-0.142,1.043-0.197c0.255-0.056,0.367-0.199,0.367-0.564
			c0-0.367,0.254-0.255,0.311-0.339c0.056-0.084,0.479-0.548,0.731-0.973c0.254-0.421,0.283-0.436,0.592-0.436
			c0.311,0,1.03-0.072,1.594-0.072s0.55,0.127,0.55,0.127s0.289,0.819,0.507,0.958c0.706,0.453,0.846,1.381,0.734,1.607
			c-0.114,0.226-0.339,0.211-0.536,0.099c-0.198-0.113-0.198-0.62-0.313-0.901c-0.111-0.282-0.703-0.776-1.069-1.115
			c-0.367-0.338-0.817,0.029-1.326,0c-0.506-0.028-0.506,0.17-0.591,0.283c-0.085,0.112-0.31,0.45-0.423,0.647
			c-0.112,0.198-0.112,0.338-0.112,0.507c0,0.17,0.112,0.592-0.168,0.733c-0.284,0.142-0.144,0.424-0.114,0.508
			c0.028,0.084,0.534,0.141,0.902,0.141c0.26,0,0.322,0.3,0.416,0.545h6.039c0.051-0.174,0.063-0.427,0.244-0.559
			c0.268-0.198,0.197-0.024,0.282,0.005c0.085,0.028,0.138,0.037,0.206,0.276c0.028,0.095,0.063,0.192,0.093,0.278h1.834V5.928
			c-0.11,0.035-0.217,0.062-0.291,0.062c-0.226,0-0.4,0.13-0.432,0.33c-0.084,0.521-0.171,0.33-0.451,0.414
			c-0.283,0.083-0.208-0.264-0.208-0.714c0-0.451-0.022-0.451,0.329-0.592c0.23-0.092,0.679-0.124,1.053-0.135V4.828
			c-0.163-0.009-0.351-0.028-0.529-0.064C157.39,4.665,156.968,4.839,156.825,4.853z M135.815,9.909
			c-0.131,0.094-0.921,0.111-1.221-0.057c-0.301-0.168-0.171-0.583-0.171-0.939c0-0.358-0.335,0.04-0.712-0.433
			c-0.226-0.282,0.149-0.526,0.393-0.526c0.246,0,0.471,0.356,0.49,0.563c0.017,0.208,0.357,0.076,0.808,0.132
			s0.244,0.301,0.488,0.583C136.135,9.513,135.948,9.814,135.815,9.909z M156.555,2.983c0.066,0.139,0.103,0.305,0.103,0.414
			c0,0.211,0.606,0.662,1.027,0.746c0.195,0.04,0.478,0.063,0.729,0.081V2.983H156.555z"/>
		<path fill="#FFFFFF" d="M138.823,18.635c-0.077-0.032-0.157-0.07-0.25-0.128c-0.268-0.17-0.479-0.071-0.535-0.269
			c-0.056-0.196,0.098-0.436,0.268-0.521c0.112-0.057,0.346,0.006,0.518,0.103V16.69c-0.187-0.035-0.368-0.047-0.504,0.039
			c-0.197,0.127-0.549,0.211-0.761,0.211c-0.211,0-0.227,0.113-0.394-0.366c-0.171-0.479-0.282-0.704-0.354-0.817
			c-0.07-0.112,0.112-0.211-0.169-0.155c-0.282,0.056-0.521,0.381-0.521,0.381c-0.211,0.099-0.45,0.283-0.508,0.084
			c-0.057-0.197-0.169-0.409-0.014-0.479s0.451-0.155,0.492-0.254c0.043-0.099,0.198-0.338,0.213-0.395
			c0.013-0.056,0.367-0.126,0.465-0.168c0.099-0.043,0.396-0.169,0.508-0.169c0.113,0,0.268-0.071,0.268,0.141
			c0,0.212,0.351-0.098,0.226,0.197c-0.128,0.296-0.226,0.607-0.226,0.818s0.026,0.239,0.339,0.211c0.31-0.028,1.07,0,1.043-0.31
			c-0.029-0.31-0.564-0.831-0.553-0.931c0.017-0.098,0.101-0.366,0.156-0.407c0.033-0.025,0.171-0.074,0.293-0.107v-0.319
			c-0.094-0.011-0.222-0.023-0.404-0.053c-0.423-0.072-0.635-0.212-0.621-0.325c0.015-0.113,0.155-0.168,0.396-0.255
			c0.239-0.083,0.451-0.055,0.493-0.14c0.02-0.037,0.077-0.102,0.221-0.159v-1.176h-1.233c-0.059,0.034-0.092,0.089-0.144,0.221
			c-0.099,0.254-0.153,0.408-0.253,0.521c-0.1,0.113-0.424,0.113-0.493-0.014c-0.07-0.127-0.1-0.465-0.185-0.563
			c-0.053-0.062-0.122-0.116-0.199-0.165h-2.579c-0.146,0.174-0.201,0.251-0.153,0.418c0.058,0.198-0.112,0.17,0.154,0.297
			c0.27,0.127,0.551,0.141,0.622,0.169c0.069,0.027,0.268,0,0.268,0.156c0,0.154-0.254,0.253-0.479,0.336
			c-0.228,0.085-0.411,0.127-0.354,0.311c0.056,0.183,0.296,0.339,0.126,0.506c-0.168,0.171-0.113,0.268-0.338,0.268
			c-0.226,0-0.521-0.182-0.465-0.337c0.057-0.156,0.127-0.324,0.127-0.41c0-0.084-0.141-0.167-0.338-0.323s-0.353-0.323-0.537-0.606
			c-0.182-0.282-0.253-0.676-0.394-0.69c-0.141-0.014-0.648,0.027-0.788,0.098c-0.143,0.07-0.34,0.621-0.536,0.649
			c-0.129,0.017-0.262-0.034-0.371-0.015v1.202c0.146,0.013,0.171,0.073,0.54-0.002c0.408-0.085,0.76-0.058,0.846-0.24
			c0.084-0.184,0.353-0.353,0.408-0.211c0.057,0.14,0.268,0.452,0.184,0.605c-0.085,0.155-0.015,0.409-0.239,0.423
			c-0.226,0.014-0.438-0.042-0.691,0.014c-0.253,0.055-0.226-0.029-0.479,0.197c-0.253,0.226-0.282,0.226-0.422,0.366
			c-0.065,0.067-0.109,0.098-0.146,0.136v0.765c0.335,0.1,0.757,0.11,0.794,0.242c0.042,0.156,0.141,0.395-0.015,0.451
			c-0.154,0.056-0.225,0.029-0.494,0.071c-0.097,0.015-0.196,0.016-0.285,0.007v9.45c0,0,0.227,1.309,0.048,2.789
			c0.009,0.001,0.019,0.001,0.027,0.002c0.126,0.014,0.353,0.057,0.422,0.1c0.07,0.041,0.171,0.225,0.171,0.35
			c0,0.129-0.113,0.213-0.227,0.269c-0.098,0.049-0.208,0.035-0.503-0.044c-0.361,1.734-1.385,3.469-4.036,3.469v4.999
			c0.104,0.014,0.191,0.032,0.225,0.048c0.114,0.057,0.255,0.254,0.255,0.647c0,0.303-0.196,0.472-0.479,0.548v1.68
			c12.741,0,12.555-12.601,12.555-12.601V18.635z M127.479,33.419c0.199-0.043,0.24-0.043,0.508-0.043s0.48,0.014,0.552,0
			c0.07-0.014,0.14-0.099,0.195-0.17c0.057-0.07,0.17-0.239,0.27-0.239c0.098,0,0.141-0.07,0.295-0.028
			c0.154,0.043,0.226,0.142,0.226,0.142c-0.027,0.269,0.113,0.422-0.168,0.479c-0.282,0.057-0.396,0-0.452,0
			c-0.056,0-0.113,0.015-0.153,0.111c-0.044,0.1,0.055,0.382,0.04,0.536c-0.013,0.155-0.026,0.55-0.31,0.521
			c-0.282-0.027-0.479-0.069-0.578-0.212c-0.097-0.14-0.169-0.21-0.253-0.239c-0.083-0.028-0.269-0.055-0.295-0.281
			C127.327,33.771,127.284,33.46,127.479,33.419z M127.452,39.591c-0.168,0.227-0.592,0.312-0.618,0.17
			c-0.029-0.141-0.086-0.507,0.196-0.507s0.564-0.113,0.592,0C127.65,39.366,127.452,39.591,127.452,39.591z M128.158,37.026
			c-0.016,0.239-0.34,0.423-0.521,0.395c-0.185-0.028-0.441-0.29-0.372-0.545c0.071-0.253,0.02-0.611,0.033-0.78
			c0.015-0.17,0.112-0.409,0.353-0.409c0.239,0,0.676,0.057,0.773,0.057c0.102,0,0.453,0.044,0.453,0.044
			c0.056,0.267,0.056,0.633-0.086,0.703c-0.141,0.07,0.142,0.227-0.084,0.283C128.481,36.829,128.172,36.786,128.158,37.026z
			 M130.441,40.071c-0.142,0.253-0.451-0.085-0.451-0.085s0-0.479,0.253-0.762l0.339,0.057
			C130.582,39.281,130.582,39.817,130.441,40.071z M130.723,36.745c-0.07,0.07-0.268,0.211-0.407,0.239
			c-0.144,0.029-0.231,0.192-0.288,0.361c-0.056,0.17-0.403,0.216-0.615,0.203c-0.212-0.015-0.417-0.048-0.476-0.315
			c-0.055-0.269,0.165-0.291,0.504-0.391c0,0,0.211,0.028,0.323,0.015c0.113-0.015,0.227-0.239,0.255-0.339
			c0.028-0.099,0.127-0.168,0.253-0.211c0.127-0.043,0.423,0.028,0.62,0.084C131.09,36.449,130.794,36.674,130.723,36.745z
			 M131.37,33.136c-0.111,0.155-0.268,0.339-0.437,0.438c-0.168,0.097-0.422-0.015-0.492-0.114c-0.071-0.098-0.339-0.38-0.395-0.604
			c-0.057-0.227,0.028-0.396,0.196-0.466c0.169-0.071,0.324,0,0.704,0.112c0,0,0.198,0,0.24,0c0.043,0,0.213,0.114,0.297,0.225
			C131.569,32.841,131.484,32.981,131.37,33.136z M131.23,17.675c-0.057-0.028-0.07-0.381,0.084-0.495v-0.056l0.267,0.084
			c0,0,0.1,0.197,0.1,0.354C131.681,17.717,131.286,17.703,131.23,17.675z M132.753,32.769c-0.014,0.1-0.409,0.059-0.451-0.152
			c-0.043-0.212-0.085-0.411,0.142-0.594c0,0,0.31,0.141,0.352,0.212C132.838,32.305,132.767,32.672,132.753,32.769z M133.035,17.18
			c-0.24,0.029-0.237-0.271-0.028-0.479c0.126-0.126,0.38,0.071,0.394,0.113C133.414,16.857,133.274,17.153,133.035,17.18z
			 M133.543,15.8c0.04-0.282,0.169-0.38,0.436-0.38c0.268,0,0.55-0.113,0.55,0.169c0,0.283,0.07,0.438-0.056,0.508
			c-0.128,0.07-0.324-0.057-0.324-0.057l-0.127,0.029C133.81,16.068,133.499,16.082,133.543,15.8z M134.867,28.779
			c-0.165,0.307-0.353,0.229-0.342,0.451c0.012,0.22,0.099,0.274,0.166,0.385c0.064,0.11-0.078,0.331-0.242,0.364
			c-0.166,0.031-0.397,0.011-0.387-0.265c0.013-0.275,0.155-0.66,0.178-0.749c0.021-0.087,0.188-0.274,0.308-0.297s0.319,0,0.319,0
			V28.779z M134.923,14.728c-0.155,0.058-0.382-0.055-0.493-0.253c-0.112-0.198,0.07-0.508,0.197-0.633
			c0.127-0.127,0.366-0.296,0.492-0.381c0.128-0.085,0.381-0.126,0.424-0.126s0.239,0.028,0.239,0.083
			c0,0.057-0.027,0.156-0.027,0.156c-0.127,0.112-0.212,0.24-0.353,0.423c-0.142,0.183-0.085,0.267-0.169,0.451
			C135.147,14.63,135.077,14.673,134.923,14.728z M135.432,31.869c-0.143,0.168-0.156-0.029-0.298-0.255
			c-0.141-0.226,0.085-0.212,0.269-0.268c0,0,0.169,0.056,0.197,0.126S135.571,31.698,135.432,31.869z M136.784,17.464
			c-0.198-0.029-0.41-0.112-0.508-0.17c-0.099-0.056-0.479,0-0.648-0.113c-0.169-0.111-0.155-0.422,0.071-0.464l0.225-0.184
			c0,0,0.085,0,0.338,0.042c0.254,0.042,0.156,0.31,0.184,0.422c0.028,0.115,0.252,0.156,0.493,0.199
			c0.239,0.042,0.282,0.294,0.282,0.409C137.221,17.717,136.98,17.49,136.784,17.464z M137.728,21.578
			c-0.197-0.042-0.071-0.493,0-0.719c0.07-0.225,0.1-0.197,0.55-0.365c0,0,0.142,0.069,0.142,0.168c0,0.099,0.126,0.452,0.126,0.676
			C138.545,21.565,137.926,21.621,137.728,21.578z"/>
		<path fill="#FFFFFF" d="M158.643,33.399c-0.252-0.038-0.507-0.114-0.801-0.377c-0.293-0.262,0.098-0.375,0.216-0.471
			c0.104-0.082,0.364-0.076,0.723-0.074v-1.494c-0.089-0.038-0.18-0.093-0.254-0.14c-0.176-0.113-0.156-0.188-0.312-0.47
			c-0.157-0.282-0.1-0.414,0.038-0.677c0.104-0.203,0.349-0.173,0.527-0.207v-1.927c-0.261,0.022-0.592,0.013-0.684-0.254
			c-0.138-0.393,0.449-0.47,0.487-0.582c0.04-0.113,0.274-0.544,0-0.544c-0.272,0-0.857,0.131-0.857-0.059
			c0-0.186,0.154-0.431,0.35-0.449c0.196-0.019,0.587-0.169,0.587-0.303c0-0.129,0.117-0.825-0.059-0.993
			c-0.176-0.171-0.547-0.49-0.567-0.678c-0.019-0.188-0.195-0.471,0.235-0.488c0.16-0.008,0.34-0.018,0.508-0.025v-3.284
			c-0.086,0.012-0.174,0.025-0.245,0.039c-0.145,0.029-0.498,0.058-0.498,0.058s-0.087,0.196-0.263,0.366
			c-0.177,0.168-0.44,0.253-0.793,0.253c-0.351,0-0.526-0.226-0.557-0.507c-0.029-0.282-0.059-0.395-0.059-0.395
			s0.205-0.509,0.265-0.254c0.135,0.583,0.146,0.508,0.498,0.564c0.352,0.056,0.586,0,0.732-0.085
			c0.147-0.084,0.147-0.451,0.323-0.508c0.104-0.033,0.386-0.066,0.596-0.088v-4.626c-0.224,0-0.593-0.007-0.918-0.058
			c-0.47-0.075-0.021-0.188,0.059-0.282c0.078-0.094,0.332-0.169,0.43-0.188c0.098-0.02,0.215-0.095,0.215-0.188
			c0-0.094,0-0.188-0.039-0.375c-0.039-0.188-0.155-0.169-0.155-0.169s-1.114,0.169-1.135,0.074
			c-0.019-0.093,0.117-0.244,0.156-0.467c0.04-0.226,0.334-0.171,0.528-0.285c0.17-0.097,0.516-0.166,0.859-0.182v-1.114h-0.372
			c-0.117,0.055-0.212,0.107-0.292,0.245c-0.098,0.169-0.195,0.281-0.39,0.395c-0.195,0.113-0.294,0-0.45-0.131
			c-0.124-0.104-0.231-0.269-0.273-0.509h-0.609c-0.055,0.136-0.114,0.291-0.134,0.358c-0.039,0.131-0.234,0.244-0.353,0.282
			c-0.116,0.037-0.548,0.13-0.782-0.038c-0.198-0.146-0.145-0.276-0.269-0.603h-0.536c-0.006,0.021-0.011,0.039-0.016,0.056
			c-0.039,0.15-0.137,0.302-0.214,0.47c-0.077,0.168-0.333,0.263-0.529,0.395c-0.195,0.131-0.487,0.169-0.663,0.169
			c-0.177,0-0.117,0.132-0.156,0.282c-0.04,0.15-0.1,0.356-0.293,0.507c-0.195,0.151-0.431-0.207-0.431-0.507
			c0-0.3,0.47-0.262,0.645-0.339c0.175-0.075,0.255-0.244,0.411-0.507c0.108-0.184,0.016-0.298-0.104-0.526h-1.19
			c-0.07,0.09-0.14,0.176-0.172,0.207c-0.078,0.076-0.234,0.377-0.312,0.488c-0.079,0.113-0.294-0.018-0.412-0.262
			c-0.081-0.171-0.088-0.244-0.131-0.433h-0.767v2.871c0.121,0.113,0.278,0.244,0.391,0.287c0.196,0.075,0.469,0.396,0.606,0.601
			c0.135,0.207-0.275,0.226-0.646,0.226c-0.134,0-0.253,0.042-0.352,0.094v1.192c0.101,0.005,0.198,0.014,0.254,0.029
			c0.137,0.038,0.038,0.207,0.117,0.282c0.077,0.075,0.234,0.056,0.39,0c0.156-0.057,0.099-0.17,0.255-0.339
			c0.156-0.168,0.176-0.149,0.332-0.112c0.157,0.038,0.235,0.319,0.195,0.507c-0.038,0.188-0.508,0.395-0.899,0.601
			c-0.261,0.139-0.436,0.144-0.644,0.199v2.679c0.096-0.013,0.193-0.027,0.283-0.04c0.409-0.055,0.292-0.083,0.849-0.113
			c0.558-0.027,0.206,0.085,0.354,0.226c0.146,0.142,0.292,0.396,0.644,0.649c0.352,0.253-0.176,0.253-0.498,0.253
			c-0.321,0-0.47-0.141-0.761-0.423c-0.235-0.225-0.493-0.125-0.87-0.077v1.126c0.223,0.164,0.219,0.051,0.692,0.051
			c0.704,0,1.524-0.253,1.701,0c0.176,0.254,0.352,0.479,0,0.508c-0.351,0.029-0.82-0.142-0.908,0.225
			c-0.089,0.367,0.088,0.791-0.089,0.817c-0.176,0.029-0.352-0.31-0.526-0.395c-0.178-0.085-0.295-0.168-0.618-0.056
			c-0.089,0.032-0.172,0.072-0.252,0.119v1.217c0.347-0.049,0.879-0.184,0.928-0.067c0.059,0.14-0.382,0.479-0.499,0.536
			c-0.116,0.057-0.321,0.057-0.204,0.424c0.116,0.366,0.175,0.985,0.175,1.294c0,0.312,0.293,0.706-0.087,0.706
			c-0.079,0-0.187-0.011-0.313-0.027v13.437h8.794v-7.617C158.733,33.393,158.687,33.405,158.643,33.399z M157.022,24.943
			c-0.157-0.076-0.079-0.282,0.116-0.339c0,0,0.175,0.075,0.214,0.132C157.393,24.792,157.179,25.018,157.022,24.943z
			 M157.079,22.933c0.157-0.095,0.255,0.131,0.255,0.262s-0.274,0.189-0.391,0.169C156.825,23.346,156.879,23.053,157.079,22.933z
			 M156.494,12.69c0.331-0.093,0.331,0.281,0.235,0.395c-0.099,0.112-0.354,0.093-0.373,0.018
			C156.337,13.027,156.339,12.733,156.494,12.69z M156.161,23.966c0.294,0,0.626-0.244,0.664,0.057c0.039,0.3-0.312,0.45-0.312,0.45
			c-0.469,0.038-0.899-0.112-0.86-0.226C155.693,24.134,155.867,23.966,156.161,23.966z M155.536,14.626c0,0,0.157,0.262,0.157,0.45
			c0,0.189-0.451,0.395-0.568,0.208C155.009,15.095,155.204,14.775,155.536,14.626z M153.621,14.888l0.215,0.283
			c0,0-0.136,0.3-0.352,0.225C153.27,15.32,153.288,15.095,153.621,14.888z M152.849,20.056l0.352-0.027c0,0,0,0.139,0,0.338
			c0,0.197-0.263,0.226-0.352,0.197C152.761,20.535,152.673,20.197,152.849,20.056z M151.901,26.709
			c-0.196,0.075-0.489,0.15-0.705,0.094c-0.213-0.056-0.429-0.245-0.313-0.47c0.118-0.227,0.489-0.657,0.567-0.657s0.488,0,0.488,0
			l0.059,0.282C151.998,26.259,152.097,26.633,151.901,26.709z M154.363,25.412c-0.136,0.151-0.254,0.171-0.431,0.282
			c-0.176,0.112-0.176,0.339-0.176,0.339c0.021,0.263,0.216,0.807-0.057,0.826c-0.275,0.018-0.49-0.187-0.704-0.338
			c-0.216-0.152-0.215-0.526-0.079-0.659c0.138-0.13,0.371-0.299,0.47-0.412c0.098-0.111,0.313-0.414,0-0.414s-0.313-0.019-0.626,0
			c-0.313,0.019-0.547-0.018-0.586-0.151c-0.039-0.13,0.019-0.676,0.137-0.751c0.117-0.074,0.177-0.281,0.547-0.281
			c0.372,0,0.469-0.414,0.685-0.188c0.214,0.225-0.118,0.412,0.097,0.715c0.216,0.3,0.41,0.318,0.566,0.544
			C154.363,25.148,154.5,25.263,154.363,25.412z M155.047,26.483c-0.097,0.17-0.097,0.434-0.097,0.601
			c0,0.17-0.353,0.037-0.431-0.112c-0.079-0.149-0.038-0.376,0.038-0.583c0.079-0.205,0.04-0.449,0.04-0.449
			c0.02-0.396,0.431-0.396,0.489-0.396c0.058,0,0.488,0.039,0.546,0.337c0.061,0.303-0.097,0.303-0.254,0.321
			C155.224,26.221,155.145,26.314,155.047,26.483z M156.631,29.509c-0.137,0.076-0.392-0.037-0.275-0.413
			c0,0,0.236-0.058,0.393-0.058C156.905,29.038,156.768,29.434,156.631,29.509z M157.022,28.362
			c-0.06-0.205-0.197-0.375-0.333-0.412c-0.137-0.037-0.898,0-1.291-0.058c-0.39-0.057-0.116-0.263-0.02-0.451
			c0.099-0.188,0.589-0.056,0.997-0.056c0,0,0.177,0.02,0.235,0c0.058-0.02,0.156-0.188,0.253-0.488
			c0.099-0.303,0.274-0.095,0.509,0.112s-0.234,0.62-0.021,0.771c0.216,0.15,0.705,0.038,0.998,0.075
			c0.292,0.037,0.098,0.827,0.098,1.071s-0.47,0.057-0.762,0C157.393,28.871,157.079,28.569,157.022,28.362z"/>
		<path fill="#FFFFFF" d="M224.125,2.945c-0.008,0.035-0.01,0.075-0.01,0.127c0,0.225,0.195,0.41,0.28,0.507
			c0.086,0.099,0.183,0.155,0.254,0.31c0.071,0.155,0.098,0.296,0.268,0.325c0.17,0.028,0.451,0.084,0.592,0.056
			c0.098-0.019,0.311-0.052,0.465-0.046V2.945H224.125z M224.974,4.623c-0.212,0.028-0.55,0.169-0.635,0.028
			c-0.083-0.142-0.043-0.409-0.197-0.451c-0.155-0.043-0.521,0.056-0.535,0.168c-0.015,0.113,0.084,0.451,0.196,0.451
			c0.114,0,0.453-0.056,0.453,0.015c0,0.069-0.087,0.253-0.199,0.366c-0.112,0.113-0.211,0.127-0.352,0.211
			c-0.143,0.084-0.143,0.183-0.143,0.395c0,0.211,0.029,0.324-0.083,0.521c-0.113,0.197-0.085,0.253-0.197,0.311
			c-0.111,0.056-0.255-0.015-0.255,0.197c0,0.211,0.057,0.281,0,0.395c-0.056,0.112,0.043,0.196-0.154,0.196
			c-0.196,0-0.31-0.041-0.395-0.099c-0.085-0.055-0.085-0.196-0.197-0.225c-0.112-0.028-0.184-0.043-0.31-0.043
			c-0.127,0-0.281,0.029-0.281,0.029s-0.41,0.198-0.255,0.338c0.155,0.141,0.042,0.112,0.042,0.283c0,0.169,0.198,0.169,0,0.211
			c-0.197,0.042-0.169-0.028-0.268,0c-0.1,0.029-0.169-0.143-0.112-0.354s-0.1-0.479,0.057-0.548
			c0.154-0.072,0.311-0.072,0.323-0.381c0.015-0.311-0.013-0.803-0.113-0.902c-0.099-0.098-0.437-0.451-0.633-0.422
			c-0.198,0.028-0.479-0.226-0.494,0.056c-0.014,0.282,0.142,0.339,0.268,0.492c0.126,0.156,0.227,0.171,0.197,0.312
			c-0.028,0.141,0.043,0.254-0.112,0.295c-0.155,0.043-0.38-0.295-0.424-0.38c-0.041-0.084-0.041-0.197-0.154-0.253
			c-0.112-0.057-0.155-0.126-0.184-0.213c-0.028-0.083,0.071-0.295-0.099-0.309c-0.169-0.015-0.634-0.057-0.704,0.014
			c-0.071,0.071-0.155,0.226-0.113,0.381c0.042,0.153,0.029,0.465,0.085,0.606c0.056,0.14,0.24,0.338,0.282,0.479
			s0.042,0.183,0.253,0.353c0.212,0.168,0.324,0.168,0.41,0.267c0.083,0.099,0.224,0.141,0.323,0.212
			c0.099,0.069,0.227,0.069,0.239,0.196c0.015,0.128,0.028,0.17,0.085,0.297c0.057,0.126,0.142,0.126,0.112,0.254
			c-0.028,0.126-0.056,0.281-0.127,0.38c-0.07,0.099-0.07,0.127-0.141,0.211c-0.07,0.084-0.154,0.183-0.211,0.211
			c-0.058,0.028-0.128,0.028-0.212,0.028s-0.259-0.042-0.248-0.142c0.028-0.308,0.356-0.713-0.057-0.901
			c-0.414-0.188-0.847-0.658-0.94-0.751c-0.094-0.095-0.338-0.414-0.243-0.696c0.093-0.281,0.168-0.638,0.168-0.638
			s0.169-0.227-0.395-0.227s-0.958-0.075-0.996-0.337c-0.037-0.264-0.356-0.093-0.356-0.319c0-0.225-0.396-0.489,0.168-0.376
			c0.563,0.114,0.659-0.244,0.828,0.17c0.168,0.414,0.47,0.47,0.583,0.433c0.111-0.039,0.375-0.188,0.47-0.376
			c0.093-0.188,0.318-0.827,0.451-0.883c0.131-0.058,0.431-0.134,0.639,0.075c0.205,0.207,0.45,0.489,0.601,0.544
			c0.15,0.057,0.301-0.151,0.526,0c0.226,0.152,0.244,0.019,0.395,0.282c0.15,0.263,0.188,0.245,0.301,0.377
			c0.112,0.13,0.301,0.206,0.319,0.281c0.02,0.076,0.207,0.263,0.356,0.244c0.151-0.018,0.391-0.108,0.391-0.408
			c0-0.302,0.009-0.752,0.084-0.958c0.075-0.208-0.173-0.399-0.098-0.569c0.075-0.169,0.318-0.337,0.019-0.375
			c-0.3-0.038-0.846-0.038-0.977,0.018c-0.133,0.057-0.114,0.188-0.282,0.188c-0.17,0-0.109-0.14-0.296-0.292
			c-0.188-0.149-0.738-0.309-0.756-0.479c-0.006-0.041-0.02-0.09-0.036-0.141h-4.172c-0.056,0.146-0.072,0.235-0.182,0.366
			c-0.141,0.17-0.055,0.297-0.395,0.128c-0.338-0.169-0.352-0.325-0.479-0.423c-0.025-0.02-0.055-0.045-0.085-0.071h-11.423
			c-0.159,0.111-0.444,0.423-0.839,0.423c-0.372,0-0.354-0.182-0.451-0.423h-2.042c-0.229,0.186-0.384,0.236-0.477,0.16
			c-0.037-0.03-0.055-0.091-0.063-0.16h-0.871c-0.109,0.07-0.197,0.157-0.248,0.273c-0.076,0.169-0.021,0.639-0.208,0.807
			c-0.127,0.114-0.245,0.144-0.403,0.15v1.22c0.145-0.036,0.219-0.098,0.291-0.147c0.112-0.075,0.375-0.357,0.433-0.507
			c0.056-0.15-0.019-0.395,0.168-0.488c0.188-0.095,0.582-0.094,0.714-0.132c0.132-0.037,0.264-0.281,0.376-0.339
			c0.114-0.055,0.508-0.207,0.678-0.075c0.167,0.133,0.375,0.265,0.206,0.357c-0.169,0.094-0.302,0.151-0.488,0.189
			c-0.188,0.037-0.376-0.037-0.376,0.263c0,0.3,0.095,0.544,0.056,0.677c-0.036,0.131-0.583-0.113-0.619,0.15
			c-0.038,0.263,0.056,0.734,0.226,0.695C200.123,6,200.389,6,200.538,5.736c0.15-0.263,0.263-0.544,0.337-0.657
			c0.077-0.112,0.303-0.471,0.378-0.489c0.074-0.019,0.3-0.244,0.47,0.037c0.17,0.283,0.696-0.281,0.863-0.055
			c0.169,0.226,0.113,0.432,0.077,0.676c-0.039,0.245-0.059,0.47,0.036,0.64c0.093,0.169,0.376,0.489,0.413,0.62
			c0.039,0.132,0.094,0.508-0.188,0.508s-0.47,0.264-0.75-0.019c-0.282-0.282-0.415-0.339-0.341-0.508
			c0.077-0.168,0.227-0.47,0.059-0.47c-0.17,0-0.529,0.112-0.64,0.207c-0.112,0.095-0.489,0.264-0.489,0.264
			s-0.375,0.056-0.113,0.396c0.265,0.337,0.677,0.582,0.847,0.752c0.17,0.167,0.619,0.336,0.694,0.525
			c0.075,0.188,0.169,0.281,0.413,0.526c0.245,0.244,0.432,0.375,0.508,0.394c0.076,0.02,0.356,0.02,0.471,0.02
			c0.112,0,0.281,0.112,0.32-0.04c0.036-0.148,0.224-0.318,0.336-0.3c0.113,0.019,0.359,0.114,0.526,0.32
			c0.17,0.207,0.546,0.225,0.415,0.376c-0.134,0.15-0.245,0.357-0.526,0.414c-0.283,0.057-0.64,0.093-0.941,0.093
			c-0.3,0-1.069,0.038-1.238-0.037c-0.17-0.076-0.471-0.545-0.623-0.659c-0.147-0.112-0.263-0.3-0.392-0.394
			c-0.133-0.095-0.097,0.187-0.415,0.226c-0.318,0.037-0.601,0.019-0.356-0.151c0.245-0.17,0.319-0.263,0.319-0.377
			c0-0.112,0.111-0.337-0.244-0.356c-0.357-0.019-0.733-0.019-1.014-0.113c-0.283-0.093-0.32-0.3-0.471-0.432
			c-0.151-0.133-0.263-0.15-0.263-0.433c0-0.281,0.28-0.545,0.168-0.583c-0.112-0.038-0.657-0.433-0.676-0.076
			c-0.02,0.358-0.076,0.622,0.019,0.922c0.094,0.3-0.095,0.281-0.095,0.432c0,0.15,0.245,0.302,0.17,0.433
			c-0.075,0.131-0.075,0.357-0.17,0.394c-0.027,0.01-0.08,0.033-0.14,0.059v1.604h0.633c-0.014-0.137-0.014-0.291-0.005-0.405
			c0.02-0.224,0.096-0.262,0.228-0.224c0.131,0.038,0.432,0.319,0.676,0.376c0.138,0.032,0.174,0.141,0.195,0.253h0.509
			c0.022-0.085,0.068-0.173,0.122-0.233c0.132-0.151,0.357-0.171,0.827-0.095c0.27,0.043,0.268,0.198,0.263,0.329h4.038
			c0.134-0.179,0.362-0.418,0.643-0.442c0.298-0.023,0.628,0.239,0.841,0.442h2.968c-0.033-0.075-0.091-0.153-0.145-0.215
			c-0.113-0.131-0.377-0.263-0.451-0.357c-0.074-0.094-0.095-0.432-0.114-0.545c-0.018-0.111,0.04-0.187-0.469-0.131
			c-0.508,0.057-0.677-0.019-0.901,0.02c-0.227,0.038-0.546-0.02-0.677-0.076c-0.132-0.057-0.132-0.302-0.188-0.376
			c-0.056-0.075-0.619-0.414-0.281-0.451c0.338-0.038,0.809-0.019,0.958-0.038c0.151-0.018,0.377-0.451,0.489-0.207
			c0.111,0.244-0.133,0.564,0.263,0.677c0.395,0.112,0.864-0.17,0.883,0.092c0.02,0.264,0.112,0.433,0.282,0.452
			c0.169,0.019,0.826-0.207,1.016-0.018c0.188,0.188,0.112,0.262-0.075,0.413c-0.188,0.15-0.207,0.264-0.133,0.47
			c0.062,0.166,0.072,0.211,0.096,0.291l3.822,0.001c0.069-0.065,0.114-0.154,0.123-0.292c0.018-0.282,0.244-0.396,0-0.583
			c-0.246-0.188-0.282-0.245-0.395-0.283c-0.113-0.036-0.244-0.187-0.132-0.319c0.112-0.133,0.037-0.225,0.263-0.245
			c0.226-0.018,0.602,0.02,0.696-0.018c0.095-0.038,0.169-0.226,0.263-0.338s0.169-0.245,0.226-0.301
			c0.055-0.056,0.262-0.075,0.262-0.188c0-0.113-0.112-0.413,0.077-0.413c0.187,0,0.449-0.151,0.545-0.244
			c0.093-0.095,0.148-0.339,0.243-0.432c0.094-0.093,0.17-0.207,0.263-0.226c0.094-0.019,0.208-0.131,0.471-0.094
			c0.264,0.038,0.563-0.169,0.563,0.169c0,0.34-0.281,0.396-0.471,0.396c-0.188,0-0.318,0-0.393,0.15
			c-0.077,0.15-0.283,0.508-0.34,0.657c-0.055,0.151,0.057,0.358-0.262,0.396c-0.32,0.038-0.527,0.038-0.584,0.188
			s-0.057,0.356,0,0.619c0.057,0.264,0,0.471,0.208,0.659c0.205,0.188,0.376,0.112,0.47,0.244c0.093,0.131,0.244,0.264,0.244,0.395
			c0,0.039,0.01,0.072,0.021,0.104h7.902c0.078-0.074,0.171-0.141,0.274-0.166c0.297-0.068,0.253-0.097,0.338-0.308
			c0.08-0.202,0.164-0.14,0.493-0.347V5.744c-0.08,0.006-0.176,0.006-0.211,0.006c-0.057,0-0.197,0.128-0.197,0.128
			s-0.17,0.311-0.17,0.423v0.381c0,0.168-0.085,0.197-0.196,0.253c-0.112,0.057-0.324,0.042-0.494,0.042s-0.154-0.084-0.24-0.225
			c-0.083-0.143,0.03-0.382,0.086-0.606c0.057-0.226,0-0.451,0.07-0.634c0.071-0.184,0.353-0.212,0.578-0.282
			c0.225-0.07,0.099,0.084,0.254,0.14c0.145,0.052,0.193,0.091,0.521,0.007V4.788c-0.198-0.032-0.434-0.066-0.479-0.066
			C225.424,4.722,225.185,4.595,224.974,4.623z M217.461,3.89c0.113-0.07,0.113-0.183,0.197-0.196
			c0.084-0.015,0.169-0.085,0.225,0.013c0.058,0.099,0.1,0.183,0.1,0.183c-0.1,0.198-0.295,0.353-0.408,0.268
			S217.348,3.961,217.461,3.89z M205.537,4.478c-0.15,0.226-0.508,0.226-0.508,0.226l-0.056-0.282l0.243-0.151
			C205.442,4.252,205.687,4.252,205.537,4.478z M207.321,4.063c-0.177,0.13-0.074,0.452-0.074,0.714
			c0,0.264,0.094,0.526-0.132,0.545c-0.225,0.019-0.282-0.451-0.338-0.696c-0.057-0.244-0.095-0.563-0.17-0.563
			c-0.074,0-0.375-0.299-0.169-0.356c0.207-0.057,0.602-0.151,0.752-0.039S207.528,3.914,207.321,4.063z M208.957,4.101
			c-0.32,0.095-0.507,0.038-0.434-0.093c0.077-0.132,0.152-0.302,0.283-0.264c0.132,0.037,0.17,0.244,0.17,0.244L208.957,4.101z
			 M209.539,4.723c0-0.151,0.057-0.564,0.244-0.564c0.188,0,0.32,0.094,0.32,0.301c0,0.207-0.151,0.45-0.151,0.45
			C209.672,5.003,209.539,4.872,209.539,4.723z M210.348,7.935c-0.188,0-0.564-0.188-0.564-0.188
			c-0.13-0.075-0.149-0.32-0.149-0.395c0-0.074,0.149-0.301,0.282-0.074c0.131,0.225,0.396,0.376,0.432,0.469
			C210.386,7.841,210.535,7.935,210.348,7.935z M212.811,9.739c-0.434,0.02-0.475-0.357,0-0.432
			c0.356-0.056,0.375,0.057,0.543,0.225C213.524,9.702,213.243,9.72,212.811,9.739z M215.487,6.992
			c-0.17,0.169-0.508,0.145-0.564,0.295c-0.056,0.151-0.216,0.085-0.309,0.16c-0.095,0.076-0.357,0.15-0.357,0.15
			c-0.319,0.075-0.508,0.019-0.508,0.244c0,0.225-0.187,0.244-0.471,0.283c-0.281,0.037-0.488-0.226-0.225-0.433
			c0.264-0.207,0.526-0.357,0.412-0.64c-0.112-0.281-0.036-0.563-0.318-0.618c-0.282-0.057-0.244-0.433-0.357-0.49
			c-0.112-0.056-0.807-0.037-0.883-0.113c-0.074-0.075-0.374-0.564,0.132-0.507c0.507,0.056,0.525-0.319,0.92,0.301
			c0.395,0.621,0.378,0.958,0.715,0.977c0.339,0.019,0.554-0.099,0.518-0.286c-0.039-0.189,0.027-0.71-0.104-0.804
			c-0.132-0.093-0.525-0.318-0.583-0.395c-0.056-0.074-0.262-0.376-0.262-0.376s0.262-0.263-0.134-0.263
			c-0.395,0-0.639-0.244-0.694-0.301c-0.057-0.057-0.526,0-0.696-0.076c-0.169-0.076-0.789-0.507-0.282-0.45
			c0.508,0.057,1.054,0.226,1.278,0.188c0.227-0.039,0.528,0.037,0.622,0.224c0.093,0.189-0.02,0.508,0.262,0.508
			c0.282,0,0.677-0.189,0.79-0.131c0.112,0.056,0.094,0.226,0.282,0.337c0.188,0.112,0.676-0.075,0.787,0.151
			c0.115,0.226,0.115,0.337-0.111,0.413c-0.227,0.076-0.413-0.093-0.45,0.169c-0.038,0.263,0.018,0.469,0.036,0.639
			c0.019,0.17,0.598,0.357,0.653,0.431C215.643,6.657,215.657,6.82,215.487,6.992z M218.56,9.233
			c-0.47,0.018-0.281-0.095-0.188-0.283c0.095-0.188,0.415-0.109,0.678,0.038C219.349,9.157,219.029,9.213,218.56,9.233z
			 M224.452,7.654c0.083-0.028,0.099-0.115,0.224-0.072c0.128,0.044,0.128,0.17,0.128,0.17c-0.042,0.493,0.099,0.534-0.042,0.747
			c-0.141,0.212-0.169,0.267-0.31,0.295c-0.142,0.028-0.196,0.043-0.196,0.211c0,0.17,0.111,0.325-0.087,0.395
			c-0.196,0.071-0.479,0.183-0.548-0.07c-0.072-0.253,0.057-0.451-0.072-0.536c-0.127-0.083-0.465-0.083-0.534-0.125
			c-0.071-0.043-0.41-0.212-0.451-0.128c-0.043,0.085-0.057,0.156-0.127,0.325c-0.071,0.168-0.354,0.494-0.606,0.479
			c-0.254-0.015-0.592-0.212-0.521-0.297c0.07-0.084,0.226-0.295,0.338-0.337c0.114-0.042,0.437-0.07,0.552-0.098
			c0.11-0.03,0.181-0.156,0.294-0.212c0.112-0.058,0.353-0.058,0.479-0.114c0.126-0.055,0.493-0.112,0.551-0.112
			c0.055,0,0.127,0.043,0.14,0.185c0.016,0.14,0.028,0.282,0.155,0.324c0.127,0.042,0.423,0.028,0.45-0.1
			c0.028-0.125,0.043-0.437,0.043-0.577S224.367,7.682,224.452,7.654z"/>
		<path fill="#FFFFFF" d="M215.816,30.675c-0.244-0.113-0.206-0.396-0.545-0.583c-0.338-0.188,0.207-0.339,0.507-0.413
			c0.232-0.058,0.396-0.017,0.547-0.106v-1.269c-0.144-0.046-0.381-0.142-0.489-0.018c-0.248,0.284-0.039,0.472-0.245,0.622
			c-0.207,0.149-0.563,0.13-0.657,0.056c-0.095-0.075-0.281-0.263-0.451-0.507c-0.17-0.245-0.002-0.433-0.301-0.433
			c-0.301,0-0.357,0.056-0.789-0.074c-0.433-0.132-0.658-0.34-0.603-0.414c0.058-0.075,0.64-0.111,0.79-0.15
			c0.151-0.038,0.544-0.132,0.582-0.244c0.038-0.113,0.433-0.584,0.452-0.319c0.018,0.262-0.264,0.583,0.093,0.714
			c0.357,0.133,0.659,0.133,0.809,0.169c0.15,0.038,0.339,0.075,0.583,0.113c0.078,0.012,0.159,0.011,0.227,0.002v-0.211
			c-0.175-0.105-0.384-0.231-0.623-0.281c-0.28-0.056-0.731-0.356-0.468-0.451c0.264-0.093,0.675-0.037,0.827-0.055
			c0.066-0.009,0.165-0.018,0.264-0.032v-0.469c-0.083,0.001-0.175,0-0.284-0.007c-0.281-0.019-0.563-0.112-0.601-0.208
			c-0.037-0.093-0.131-0.204-0.112-0.318c0.019-0.112,0.094-0.151,0.301-0.17c0.199-0.018,0.521-0.019,0.696-0.019v-1.091
			c-0.299-0.071-0.448-0.119-0.528-0.167c-0.095-0.058-0.168-0.17-0.187-0.245c-0.02-0.074-0.356-0.375-0.356-0.451
			s0.056-0.188,0.168-0.224c0.112-0.038,0.471-0.076,0.77-0.076c0.045,0,0.088-0.001,0.134-0.002V19.85
			c-0.305,0-0.572,0.004-0.752,0.019c-0.227,0.019-0.509-0.17-0.414,0.169c0.095,0.338,0.036,0.526-0.488,0.601
			c-0.526,0.077-0.884-0.487-0.847-0.563c0.037-0.074-0.207-0.169-0.282-0.282c-0.076-0.114,0.207-0.62,0.376-0.262
			c0.17,0.356,0,0.47,0.395,0.47s0.508-0.058,0.658-0.17c0.149-0.113,0.075-0.318,0.433-0.357c0.292-0.032,0.609-0.197,0.922-0.248
			v-4.885c-0.049,0-0.094,0.001-0.134,0.007c-0.098,0.014-0.14,0.112-0.352,0.325c-0.211,0.211-0.17,0.254-0.226,0.267
			c-0.057,0.015-0.38-0.013-0.465-0.154c-0.085-0.142,0.028-0.353,0.141-0.424c0.113-0.069,0.283,0,0.424-0.028
			c0.141-0.027,0.182-0.154,0.252-0.24c0.071-0.085-0.07-0.098-0.07-0.211s-0.07-0.168-0.125-0.353
			c-0.057-0.182-0.197-0.14-0.367-0.21c-0.169-0.071-0.254,0.269-0.339,0.395c-0.085,0.127-0.253-0.155-0.281-0.254
			s-0.143-0.071-0.339-0.212c-0.197-0.14-0.493,0.013-0.634-0.014c-0.142-0.028-0.239-0.38-0.142-0.48
			c0.1-0.099,0.34-0.028,0.564-0.028c0.226,0,0.211,0.168,0.352,0.184c0.142,0.014,0.325-0.042,0.635-0.226
			c0.311-0.183,0.45,0.014,0.62,0.057c0.123,0.03,0.306,0.054,0.485,0.158v-1.413h-1.054c0.002,0.164,0.019,0.568,0.019,0.714
			c0,0.152-0.432-0.112-0.602-0.281c-0.103-0.103-0.086-0.261-0.081-0.433h-0.973c0.001,0.006,0.001,0.013,0.001,0.019
			c0,0.133-0.093,0.245-0.111,0.414c-0.02,0.169-0.227,0.225-0.301,0.32c-0.075,0.094-0.376,0.019-0.546-0.02
			c-0.169-0.038-0.282-0.282-0.356-0.507c-0.026-0.082-0.029-0.157-0.023-0.227H211.7c-0.045,0.15-0.055,0.32-0.055,0.32
			s-0.319,0.583-0.396,0.677c-0.075,0.094-0.432,0.207-0.582,0.207s-0.113,0.113-0.208,0.151c-0.093,0.037-0.187,0.318-0.281,0.508
			c-0.094,0.186-0.507-0.059-0.619-0.378c-0.114-0.32,0.3-0.394,0.45-0.394s0.376,0.019,0.376,0.019s0.244-0.133,0.375-0.226
			c0.133-0.095,0-0.188-0.111-0.47c-0.071-0.176-0.09-0.31-0.098-0.414h-1.422c-0.084,0.202-0.266,0.585-0.548,0.603
			c-0.265,0.016-0.225-0.113-0.301-0.603h-0.716v0.763c0.16,0.183,0.291,0.23,0.381,0.393c0.127,0.226,0.367,0.268,0.17,0.438
			c-0.164,0.14-0.413,0.231-0.551,0.298v0.927c0.127,0.102,0.312,0.224,0.381,0.324c0.099,0.141,0.367,0.283,0.367,0.41
			s-0.085,0.295-0.21,0.366c-0.128,0.07-0.269,0.07-0.313,0.083c-0.02,0.008-0.126,0.063-0.225,0.127v1.259
			c0.108,0.019,0.237,0.024,0.353-0.032c0.198-0.099,0.579-0.185,0.706-0.185c0.125,0,0.296,0.099,0.268,0.254
			c-0.027,0.156-0.113,0.254-0.239,0.338c-0.129,0.085-0.198,0.112-0.281,0.155c-0.087,0.042-0.382,0.014-0.536,0.071
			c-0.12,0.044-0.191,0.088-0.27,0.145v3.095c0.304,0.026,0.423,0.052,0.64-0.097c0.3-0.207,0.771-0.545,0.921-0.074
			c0.149,0.468,0.602,0.468,0.434,0.77c-0.17,0.3-0.284,0.62-0.583,0.319c-0.301-0.3-0.15-0.488-0.546-0.432
			c-0.374,0.054-0.658,0.041-0.865,0.039v1.074c0.249-0.012,0.666-0.022,0.828-0.022c0.225,0,1.239-0.038,1.541-0.038
			c0.3,0,0.3,0.377,0.28,0.471c-0.019,0.094-0.751,0.112-1.069,0.13c-0.319,0.021-0.226,0.264-0.226,0.678
			c0,0.413-0.056,0.452-0.094,0.601c-0.039,0.15-0.095,0.133-0.208,0.17c-0.113,0.038,0.039-0.207-0.113-0.301
			c-0.149-0.094-0.111-0.413-0.206-0.752c-0.073-0.264-0.409-0.196-0.733-0.181v1.385c0.35,0.021,0.666-0.001,0.79,0.093
			c0.149,0.113,0.509,0.132,0.132,0.337c-0.376,0.208-0.789,0.321-0.864,0.34c-0.01,0.003-0.031,0.004-0.058,0.004v0.98
			c0.189,0.053,0.334,0.12,0.32,0.405c-0.019,0.396,0.226,0.527-0.074,0.695c-0.086,0.049-0.168,0.087-0.246,0.12v13.318h8.76
			v-9.879C216.179,30.844,216.017,30.767,215.816,30.675z M214.858,24.849c0,0.056-0.396,0.188-0.563,0.188
			c-0.171,0-0.09-0.245,0.131-0.3C214.801,24.642,214.858,24.792,214.858,24.849z M214.538,22.855
			c0.413-0.018,0.263,0.171,0.188,0.339c-0.074,0.169-0.226,0.094-0.508,0.02C213.938,23.14,214.331,22.866,214.538,22.855z
			 M214.182,24.003c0.037,0.281-0.396,0.433-0.396,0.433c-0.394-0.037-0.563-0.206-0.563-0.206s0.3-0.152,0.395-0.152
			S214.145,23.722,214.182,24.003z M212.641,14.63c0,0,0.197-0.069,0.338-0.069c0.142,0,0.1,0.139,0.169,0.225
			c0.071,0.084,0,0.45-0.027,0.494c-0.028,0.041-0.354,0.041-0.507-0.044C212.458,15.152,212.5,14.757,212.641,14.63z M212.49,22.5
			c0.094-0.133,0.3-0.3,0.677-0.376c0.375-0.075,0.507,0.357,0.489,0.488c-0.021,0.132-0.583,0.244-0.866,0.244
			c-0.281,0-0.375,0.038-0.602,0.188c-0.225,0.15-0.244,0.319-0.507,0.096c-0.263-0.227,0.137-0.276,0.451-0.34
			C212.228,22.782,212.396,22.632,212.49,22.5z M211.795,21.467l-0.037,0.281c0,0-0.377,0.149-0.546-0.057
			c-0.169-0.206-0.095-0.507,0.169-0.601C211.646,20.996,211.889,21.241,211.795,21.467z M210.878,15.124
			c0.142-0.156,0.191,0.012,0.606-0.07c0.283-0.057,0.128,0.24,0.086,0.267c-0.043,0.029-0.424,0.113-0.663,0.113
			C210.667,15.434,210.737,15.28,210.878,15.124z M210.137,20.008c0.152-0.167,0.305-0.209,0.404,0.015
			c0.096,0.222,0.013,0.415-0.03,0.429c-0.041,0.015-0.166-0.014-0.166-0.014C210.108,20.438,209.983,20.173,210.137,20.008z
			 M208.713,27.855c0,0,0.264,0.075,0.3,0.15c0.038,0.074-0.111,0.377-0.132,0.524c-0.017,0.152-0.412-0.017-0.431-0.129
			C208.431,28.286,208.523,27.968,208.713,27.855z M208.505,29.472c-0.337,0,0.038-0.356,0.17-0.414l0.132,0.058
			c0,0,0.283,0.093,0.283,0.206C209.09,29.434,208.845,29.472,208.505,29.472z M209.314,26.859c-0.094,0.058-0.376-0.075-0.45-0.245
			c-0.077-0.168-0.096-0.675,0.037-0.845c0,0,0.075-0.112,0.13-0.112c0.059,0,0.189,0,0.414,0.037
			c0.227,0.038,0.114,0.301,0.15,0.639C209.634,26.672,209.409,26.803,209.314,26.859z M211.101,28.53
			c-0.207,0-0.207,0.058-0.319,0.152c-0.114,0.094-0.246,0.188-0.358,0.188c-0.111,0-0.244-0.151-0.075-0.321
			c0,0,0.188-0.074,0.244-0.093s0.207-0.037,0.302-0.113c0.094-0.074,0.093-0.226,0.224-0.394c0.133-0.17,0.433-0.075,0.583,0.188
			C211.852,28.401,211.307,28.53,211.101,28.53z M212.114,27.161c-0.226-0.151-0.281-0.452-0.338-0.508
			c-0.058-0.058-0.188-0.113-0.282-0.058c-0.095,0.058-0.133,0.077-0.451,0.095c-0.319,0.019-0.413,0.188-0.545-0.112
			c-0.131-0.301-0.264-0.453-0.094-0.639c0.17-0.188,0.226-0.207,0.319-0.321c0.095-0.111-0.057-0.525-0.132-0.525
			c-0.074,0,0-0.018-0.28-0.018c-0.284,0-0.434,0-0.528-0.132c-0.094-0.132-0.094-0.357-0.056-0.545
			c0.037-0.189,0.037-0.452,0.132-0.471c0.093-0.019,0.526,0.019,0.581-0.019c0.058-0.037,0.32-0.037,0.358-0.096
			c0.038-0.055-0.075-0.318,0.149-0.224c0.226,0.093,0.302,0.206,0.302,0.413c0,0.206,0.057,0.658,0.169,0.809
			c0.114,0.149,0.545,0.149,0.525,0.317c-0.02,0.171-0.355,0.359-0.374,0.565c-0.021,0.208-0.32,0.377-0.209,0.47
			c0.114,0.095,0.697,0.244,0.827,0c0.133-0.244,0.264-0.488,0.489-0.488s0.64-0.019,0.583,0.244
			c-0.058,0.264-0.058,0.357-0.282,0.508c-0.226,0.15-0.488,0.263-0.488,0.263C212.358,26.953,212.34,27.31,212.114,27.161z
			 M213.712,29.565c-0.056-0.112-0.319-0.395-0.17-0.488c0.151-0.094,0.358-0.094,0.358-0.094l0.168,0.3
			C213.993,29.546,213.769,29.679,213.712,29.565z M215.778,33.23c-0.019,0.094-0.019,0.413-0.205,0.264
			c-0.189-0.15-0.319-0.507-0.319-0.583c0-0.075-0.04-0.3,0.018-0.338c0.057-0.038,0.357-0.188,0.357-0.188l0.094,0.037
			C215.76,32.778,215.797,33.136,215.778,33.23z"/>
		<path fill="#FFFFFF" d="M180.097,34.982c-0.028-0.183-0.184-0.31-0.184-0.31s-0.171-0.043-0.254-0.071
			c-0.085-0.027-0.168-0.155-0.168-0.155l0.027,0.832c0,0,0.239-0.057,0.295-0.098C179.869,35.138,180.124,35.166,180.097,34.982z
			 M179.491,37.44c0.066,0.013,0.242,0.028,0.309-0.118c0.085-0.184-0.014-0.309-0.042-0.507c-0.027-0.197,0-0.452-0.07-0.452
			c-0.052,0-0.149-0.007-0.196-0.011V37.44z M195.747,22.367c0.295-0.066,0.67-0.095,0.975-0.155
			c0.02-0.439,0.028-0.871,0.026-1.295c-0.349-0.058-0.613-0.145-0.775-0.391c-0.226-0.338-0.753-0.638-0.377-0.977
			c0.361-0.325,0.86-0.408,1.063-0.514c-0.056-0.658-0.138-1.289-0.242-1.896c-0.012,0.002-0.021,0.003-0.032,0.004
			c-0.789,0.075-1.541,0.15-1.541-0.151s0.113-0.976,0.301-1.24c0.188-0.264,0.525-0.414,0.677-0.602
			c0.027-0.034,0.066-0.077,0.11-0.125c-0.142-0.492-0.299-0.956-0.469-1.392c-0.186,0.034-0.36,0.11-0.431,0.276
			c-0.114,0.262-0.488,0.601-0.603,0.714c-0.111,0.112-1.126,0.488-1.126,0.149c0-0.337,0.525-0.488,0.713-0.677
			c0.188-0.187,0.638-0.413,0.753-0.601c0.111-0.186,0.188-0.489,0.111-0.75c-0.074-0.264-0.337-0.677-0.374-0.978
			c-0.004-0.026-0.005-0.055-0.006-0.084c-0.188-0.301-0.381-0.576-0.578-0.818c-2.536-3.1-6.427-7.947-14.771-7.947v6.594
			c0,0,7.412,1.748,8.67,7.361c0.016-0.001,0.026-0.001,0.042-0.002c0.45-0.028,0.534,0.252,0.732,0.394
			c0.196,0.14,0.226,0.506,0.816,0.677c0.592,0.168-0.027,0.281-0.225,0.281c-0.198,0-0.592-0.056-0.762-0.421
			c-0.108-0.236-0.219-0.168-0.462-0.045c0.024,0.252,0.038,0.511,0.038,0.777v1.432c0.011,0.001,0.021,0.004,0.029,0.006
			c0.225,0.057,0.958,0.112,1.973,0.057c1.017-0.057,0.705,0.084,0.874,0.084s0.451,0.451,0.678,0.958
			c0.224,0.507,0.311-0.142,0.534-0.366c0.227-0.225,0.536-0.029,0.873-0.085c0.341-0.057,0.254-0.338,0.565-0.536
			c0.31-0.197,0.563-0.197,1.071-0.253c0.507-0.056,0.337,0.536,0.337,0.789c0,0.254,0.029,0.339,0.142,0.451
			c0.113,0.113,0.283,0.31,0.311,0.592s-0.479-0.113-0.761-0.282c-0.282-0.168-0.112-0.112-0.282-0.564
			c-0.17-0.451-0.592-0.197-0.761-0.112c-0.17,0.084-0.479,0.309-0.734,0.676c-0.252,0.367-0.93,0.479-1.155,0.479
			c-0.225,0-0.283-0.254-0.45-0.676c-0.169-0.423-1.127-0.03-1.69,0.084c-0.565,0.112-0.819-0.198-1.102-0.564
			c-0.13-0.172-0.276-0.224-0.451-0.221v0.683c0.086,0.008,0.172,0.017,0.254,0.017c0.326,0,0.283,0.21,0.367,0.324
			c0.086,0.112-0.197,0.225-0.324,0.281c-0.127,0.056,0,0.381,0.099,0.479c0.099,0.098,0.198,0.239,0.269,0.254
			c0.363,0.072,0.732,0.38,0.816,0.521c0.085,0.143,0.297,0.325-0.07,0.354c-0.365,0.027-0.535,0.013-0.677-0.043
			c-0.14-0.055-0.366-0.268-0.379-0.352c0,0-0.176-0.07-0.354-0.137v0.89c0.24,0.118,0.635,0.28,0.621,0.374
			c-0.015,0.1,0,0.281-0.17,0.366c-0.11,0.057-0.283,0.05-0.451,0.057v0.408c0,0-0.082,1.311-0.627,2.93
			c0.425,0.077,0.836,0.308,0.77,0.396c-0.068,0.094-0.561,0.258-1,0.229c-0.931,2.339-2.825,4.377-6.799,5.372
			c0.049,0.024,0.095,0.039,0.131,0.039c0.254,0,0.648,0.31,0.705,0.422c0.056,0.114-0.423,0.62-0.705,0.818
			c-0.281,0.197-0.31,0.986-0.367,1.24c-0.056,0.254,0.254,0.732,0.959,1.098c0.706,0.367-0.085,0.481-0.873,0.452
			c-0.38-0.014-0.57,0.037-0.704,0.135v2.938c0,0,11.594,0.019,15.22-9.811c0.864-2.336,1.51-4.563,1.8-6.697
			c-0.291-0.137-0.541-0.311-0.764-0.8C195.369,22.894,195.258,22.48,195.747,22.367z M189.188,7.372
			c-0.028,0.167-0.198,0.196-0.198,0.196c-0.421,0.058-0.536-0.055-0.508-0.196c0.029-0.141,0.311-0.283,0.452-0.283
			S189.215,7.203,189.188,7.372z M193.105,18.817c0.027,0.197-0.648,0.112-1.07,0.112c-0.424,0-0.623,0.311-0.763,0.254
			c-0.14-0.057-0.252-0.226-0.563-0.226c-0.31,0-0.366-0.507-0.339-1.043c0,0,0-0.45,0.17-0.563c0.169-0.114,0.48-0.171,0.847-0.199
			c0.365-0.028,0.592,0.452,0.563,0.649c-0.029,0.197,0.169,0.394,0.787,0.394C193.359,18.196,193.078,18.618,193.105,18.817z
			 M194.6,17.548c0,0-0.311,0.197-0.424,0.536c-0.112,0.338-0.451,0.197-0.563-0.057c-0.112-0.255-0.732-0.339-0.788-0.592
			c-0.057-0.255-0.623-0.265-0.734-0.706c-0.055-0.224,0-0.422,0.34-0.422c0.338,0,0.395,0.422,0.703,0.648
			c0.311,0.224,0.536,0.367,1.016,0.396C194.628,17.378,194.6,17.548,194.6,17.548z M181.787,36.152
			c-0.169,0.07-0.535,0.184-0.535,0.184c-0.281,0.027-0.451-0.126-0.352-0.24c0.098-0.112,0.211-0.225,0.38-0.225
			s0.268-0.113,0.396,0.013C181.803,36.012,181.956,36.082,181.787,36.152z M187.27,31.82c-0.516,0.044-0.666,0.273-0.723-0.037
			s-0.104-0.525,0.216-0.537c0.32-0.008,0.572-0.187,0.64,0.104C187.468,31.643,187.384,31.812,187.27,31.82z M187.693,30.74
			c-0.283-0.057-0.507-0.396-0.197-0.563c0.309-0.17,0.62-0.197,0.592,0.111C188.049,30.71,187.976,30.796,187.693,30.74z
			 M189.933,23.454h0.115c0,0,0.295,0.125,0.352,0.281c0.055,0.154-0.226,0.227-0.521,0.227S189.808,23.722,189.933,23.454z
			 M189.327,27.217c-0.422,0.141-0.93-0.113-0.506-0.225c0.422-0.115,1.099-0.396,0.93-0.086S189.327,27.217,189.327,27.217z
			 M189.92,30.656c-0.365,0.055-0.283-0.271,0.056-0.479c0.367-0.225,0.509,0.027,0.538,0.141
			C190.54,30.431,190.287,30.6,189.92,30.656z M191.188,24.709c-0.168,0.154-0.296,0.379-0.592,0.407
			c-0.295,0.028-0.184-0.155-0.184-0.508c0-0.352,0.227-0.149,0.423-0.379c0.254-0.297,0.396-0.156,0.465-0.128
			C191.372,24.13,191.358,24.553,191.188,24.709z"/>
		<path fill="#FFFFFF" d="M177.686,40.071c-0.057-0.143-0.028-0.367,0.057-0.423c0.083-0.058,0-0.932,0-0.932
			s-0.197-0.253-0.31,0.197c-0.113,0.452-0.057,0.903-0.226,0.932c-0.169,0.027-0.593-0.169-0.705,0.083
			c-0.113,0.255-0.396,0.227-0.057,0.565c0.338,0.337,0.366,0.45,0.62,0.45s0.875-0.168,0.875-0.168S177.742,40.212,177.686,40.071z
			"/>
		<path fill="#FFFFFF" d="M177.518,36.997c-0.227,0-0.79,0.029-1.214-0.224c-0.421-0.255,0.256-0.255,0.536-0.283
			c0.282-0.028,0.479-0.422,0.705-0.788s-0.31-0.677-0.423-0.79c-0.112-0.112-0.677-0.199-1.239-0.253
			c-0.564-0.058-0.197,0.619-0.197,0.929c0,0.312-0.34,0.199-0.649,0.199s-0.479,0.309-0.621,0.309c-0.14,0-0.592-0.112-0.62-0.394
			c-0.026-0.282,0.312-0.536,0.536-0.677c0.227-0.142,0.593-0.313,0.535-0.563c-0.056-0.255-0.421-0.706-0.224-0.846
			c0.196-0.142,0.281,0.366,0.647,0.506c0.366,0.142,0.535,0.057,0.762,0.057c0.225,0,0.676,0,0.731-0.365
			c0,0-0.244-0.245-0.432-0.207c-0.188,0.037-2.706-0.188-4.736-2.896c0,0-0.356,0.199-0.667,0.057
			c-0.309-0.14-0.479-0.479-0.282-0.535c0.198-0.056,0.649-0.31,0.509-0.366c-0.143-0.057-1.494-2.594-1.607-2.96
			s-0.593-0.112-0.45-0.395c0.141-0.282,0.253-0.366,0.253-0.592s0-0.113-0.169-0.987c-0.169-0.873-0.255-2.141-0.366-2.424
			c-0.112-0.281-0.705-0.396-0.396-0.648c0.31-0.254,0.648-0.423,0.648-0.706c0-0.281-0.085-1.972-0.027-2.845
			c0,0-0.508-0.114-0.508-0.255c0-0.141,0.648-0.112,0.761-0.253c0.112-0.143,0.423-2.425,2.425-4.793c0,0-0.902-0.706-0.508-0.789
			c0.395-0.084,0.395-0.111,0.874-0.056c0.479,0.056,0.705,0,0.959-0.227c0.253-0.224,1.466-1.24,1.747-1.352
			c0.282-0.113,1.945-0.986,2.904-1.127V3.003c0,0-3.807-0.227-7.556,1.578s-8.542,7.076-9.273,12.149
			c-0.733,5.075-0.424,6.596-0.424,6.596l0.112,0.059c0,0,0.649-0.255,0.848,0.195c0.195,0.453-0.649-0.111-0.762,0.424
			c-0.113,0.535,0.226,0.789,0.449,0.508c0.227-0.281,0.538-0.227,0.564-0.085c0.028,0.142-0.197,0.874-0.367,0.901
			c-0.167,0.028-0.479-0.027-0.479,0.452s0,0.986,0.254,0.986h1.071c0.255,0,0.563-0.085,0.733-0.254
			c0.169-0.17,0.705-0.253,0.959-0.31c0.253-0.057,0.985-0.057,1.015,0.112s0.112,0.62-0.142,0.62s-0.677-0.423-0.761-0.169
			c-0.085,0.254-0.057,0.62-0.057,0.958s-0.104,0.818,0.179,0.846s0.666,0.281,0.864-0.254c0.197-0.535,0.113-0.479,0.169-0.705
			c0.057-0.225,0.028-0.309,0.283-0.309c0.253,0,0.591,0,0.647-0.085c0.057-0.084,0-0.34-0.169-0.451
			c-0.17-0.112-0.226-0.366-0.17-0.507c0.058-0.142,0.227-0.705,0.339-0.396c0.112,0.312-0.028,0.733,0.282,0.847
			c0.31,0.113,0.45,0.113,1.016,0.168c0.563,0.058,1.015,0,1.042,0.367c0.027,0.366,0.132,0.348-0.151,0.631
			c-0.281,0.282-0.526,0.375-0.75,0.15c-0.227-0.228-0.227-0.075-0.311-0.356c-0.085-0.283-0.282-0.452-0.366-0.312
			c-0.085,0.143-0.114,0.593-0.143,0.678c-0.027,0.083-0.384-0.33-0.553-0.048c-0.171,0.282-0.151,0.357-0.207,0.526
			s-0.376,0.113-0.545,0.226c-0.17,0.112-0.17,0.395-0.339,0.507c-0.169,0.114-0.413,0.31-0.497,0.083
			c-0.085-0.224,0.027-0.309-0.312-0.28c-0.338,0.028-0.647,0.112-0.788,0.28c-0.142,0.171-0.396,0.312-0.706,0.312
			c-0.309,0-0.677-0.312-0.337-0.395c0.337-0.085,1.184-0.396,0.986-0.619c-0.198-0.226-0.34-0.255-0.34-0.255
			s-0.618,0.17-0.28-0.169c0.338-0.338,0.507-0.396,0.592-0.649c0.085-0.252-0.113-0.788-0.507-0.45
			c-0.396,0.338-0.649,0.536-0.817,0.565c-0.17,0.027-0.199-0.367-0.479-0.283c-0.282,0.085-0.425,0.114-0.339,0.395
			c0.084,0.281,0.311,0.451,0.311,0.733c0,0.28,0.789,2.563,1.268,3.212c0,0,0.282,0,0.282,0.227c0,0.226,0.282,0.31,0.254,0.535
			s0.422,0.902,0.422,0.902s2.735,3.327,3.693,4.06c0.959,0.732,2.312,1.635,2.312,1.635c0.17,0.057,0.705,0.057,0.79,0.057
			s0.056,0.479,0.14,0.677c0.085,0.197,0.395-0.084,0.509-0.34c0.112-0.253,0.45-0.337,0.789-0.365
			c0.338-0.028,0.647-0.057,0.817-0.169c0.168-0.112,0.282-0.281,0.675-0.281c0.396,0,0.255,0.112,0.339,0.366
			c0.086,0.253-0.422,0.142-0.703,0.142c-0.282,0-0.198,0.337-0.17,0.703c0.027,0.367,0.847,0.396,1.438,0.423
			c0.592,0.028,0.056,0.311,0.226,0.507c0.17,0.198,0.761,0,1.071-0.055c0.312-0.058-0.168-0.452-0.311-0.593
			c-0.141-0.141-0.169-0.507-0.169-0.705c0-0.196-0.168-0.507-0.45-0.733c-0.281-0.225-0.396,0.058-0.705,0.029
			c-0.311-0.029-0.17-0.339-0.086-0.45c0.086-0.114,0.396-0.34,0.594-0.34c0.197,0,0.761,0,0.901,0.057s0.141,0.704,0.367,0.874
			c0.226,0.169,1.069,0.395,1.069,0.283c0-0.114-0.646-0.819-0.761-0.933c-0.111-0.111-0.365-0.733-0.169-0.816
			c0.197-0.084,0.142,0.311,0.311,0.395c0.169,0.085,0.619,0.197,0.959,0.17c0.338-0.029,0.366-0.254,0.592-0.509
			C178.024,37.224,177.742,36.997,177.518,36.997z M162.605,23.89c-0.254-0.111-0.058-0.311-0.058-0.311h0.142
			C162.746,23.692,162.858,24.003,162.605,23.89z M166.622,9.626c0.14-0.211,0.154-0.367,0.339-0.338
			c0.182,0.028,0.323,0.211,0.323,0.268s-0.042,0.141-0.042,0.141C166.861,10.078,166.481,9.839,166.622,9.626z M166.129,18.055
			c0.338-0.225,0.563-0.507,0.846-0.367c0.281,0.143,0.226,0.706,0.141,0.622C166.708,17.902,165.789,18.281,166.129,18.055z
			 M162.999,15.434c-0.026-0.31-0.056-0.479,0.311-0.507c0.366-0.029,0.789-0.029,0.732,0.225s-0.338,0.337-0.338,0.337
			C163.423,15.489,163.026,15.743,162.999,15.434z M163.366,19.943c0.027-0.112,0.113-0.591,0.31-0.508
			c0.197,0.086,0.028,0.283,0.028,0.283C163.648,20.001,163.338,20.056,163.366,19.943z M167.85,22.425
			c-0.086,0.508-0.115,0.592-0.623,0.732c-0.506,0.143-0.816,0.535-1.211,0.197s-0.168-0.508-0.479-0.508
			c-0.311,0-0.79-0.168-0.93-0.112c-0.142,0.058-0.254,0.62-0.28,0.761c-0.03,0.142-0.453,0.255-0.537,0.084
			c-0.085-0.169-0.366-0.479,0.027-0.646c0.395-0.17,0.593-0.34,0.593-0.508c0-0.17-0.113-0.791-0.17-0.987
			c-0.056-0.196,0.424-0.075,0.818-0.16c0.394-0.084,0.573-0.113,0.996,0.451c0.422,0.564,1.005,0.442,1.005,0.442
			C167.594,22.284,167.933,21.917,167.85,22.425z M165.471,31.05c0-0.169-0.02-0.339,0.433-0.355
			c0.451-0.02,0.902-0.151,0.827,0.149c-0.076,0.301-0.283,0.488-0.508,0.47C165.94,31.29,165.471,31.22,165.471,31.05z
			 M166.824,32.686c-0.132,0.111-0.433,0.226-0.545,0.188c-0.113-0.038-0.15-0.357-0.15-0.357l0.318-0.188
			C166.711,32.385,166.954,32.573,166.824,32.686z M169.005,33.738c0.056-0.208,0.262-0.113,0.413-0.095
			c0.15,0.02,0.056,0.319-0.132,0.375C169.098,34.077,168.935,33.991,169.005,33.738z M169.962,38.587
			c-0.17-0.094-0.281-0.357-0.413-0.357c-0.131,0-0.301-0.019-0.432-0.075c-0.132-0.056-0.132-0.188-0.282-0.339
			s-0.245-0.17-0.339-0.17c-0.093,0-0.15-0.019-0.337-0.093c-0.188-0.076-0.227-0.188-0.227-0.188l-0.093-0.111
			c-0.038-0.508,0.093-0.771,0.244-0.528c0.148,0.245,0.395,0.414,0.45,0.547c0.056,0.13,0.132,0.149,0.301,0.149
			c0.17,0,0.432,0.019,0.507,0.114c0.076,0.092,0.339,0.244,0.339,0.336c0,0.095,0.056,0.188,0.207,0.302
			c0.148,0.112,0.317,0.226,0.317,0.3C170.205,38.549,170.132,38.68,169.962,38.587z M170.385,36.265c0,0-0.479,0.114-0.817,0.226
			c-0.338,0.112-0.535-0.111-0.76-0.395c-0.227-0.281-0.479-0.281-0.622-0.732c-0.141-0.451-0.336,0-0.535-0.027
			c-0.197-0.028-0.281-0.368-0.028-0.536c0.254-0.17,0.62-0.141,0.817,0.112c0.198,0.254,0.339,0.396,0.368,0.563
			c0.027,0.169,0.28,0.396,0.675,0.396s0.536,0,0.959,0.055L170.385,36.265z M170.564,32.535c-0.038-0.075-0.433-0.263-0.452-0.339
			c-0.019-0.075,0.15-0.395,0.319-0.244c0.17,0.151,0.037,0.396,0.377,0.396c0.338,0,0.771-0.169,0.9,0.075
			c0.134,0.244-0.263,0.508-0.338,0.508c-0.074,0-0.13-0.057-0.13-0.057C170.92,32.836,170.602,32.611,170.564,32.535z
			 M171.992,34.809c-0.076,0.283-0.039,0.451-0.207,0.451c-0.169,0-0.263-0.112-0.263-0.112c-0.47-0.132-0.848-0.659-0.883-0.732
			c-0.038-0.074,0.188-0.582,0.695-0.302C171.843,34.396,172.068,34.526,171.992,34.809z"/>
	</g>
	<path fill="#999998" d="M81.485,17.293l26.31,30.069c0,0,0.452,2.405-0.976,5.263c0,0,0.451,0.6,1.277-0.978
		c0.827-1.579,4.961-7.368,10.073-9.247L85.245,13.009c0,0-2.031-0.526-3.383,0.903C80.509,15.339,81.485,17.293,81.485,17.293z"/>
</g>
</svg>
