<?xml version="1.0" encoding="utf-8"?>
<!-- Generator: Adobe Illustrator 16.0.0, SVG Export Plug-In . SVG Version: 6.00 Build 0)  -->
<!DOCTYPE svg PUBLIC "-//W3C//DTD SVG 1.1//EN" "http://www.w3.org/Graphics/SVG/1.1/DTD/svg11.dtd">
<svg version="1.1" id="图层_1" xmlns="http://www.w3.org/2000/svg" xmlns:xlink="http://www.w3.org/1999/xlink" x="0px" y="0px"
	 width="500px" height="500px" viewBox="0 0 500 500" enable-background="new 0 0 500 500" xml:space="preserve">
<g>
	<g>
		<g>
			<path fill="#FFFFFF" d="M293.75,356.25L293.75,356.25c-11.25,0-22.5-3.75-31.25-10c-26.25-18.75-43.75-35-58.75-50
				s-31.25-32.5-50-58.75c-18.75-25-11.25-57.5,17.5-87.5c8.75-8.75,23.75-8.75,32.5,0l17.5,17.5c3.75,3.75,6.25,10,6.25,16.25
				s-2.5,12.5-6.25,16.25l-7.5,7.5c-2.5,2.5-1.25,6.25,0,8.75c8.75,11.25,23.75,27.5,32.5,35c8.75,8.75,23.75,23.75,35,32.5
				c2.5,2.5,6.25,2.5,8.75,0l7.5-7.5c8.75-8.75,23.75-8.75,32.5,0l17.5,17.5c3.749,3.75,6.25,10,6.25,16.25s-2.501,12.5-6.25,16.25
				C331.25,346.25,312.5,356.25,293.75,356.25z M187.5,156.25c-2.5,0-5,1.25-7.5,2.5c-25,25-30,51.25-16.25,71.25
				c18.75,26.25,33.75,42.5,48.75,57.5s31.25,30,57.5,48.75C290,350,316.25,345,341.25,320c2.5-2.5,2.5-5,2.5-7.5s-1.25-5-2.5-7.5
				l-18.75-17.5c-3.75-3.75-11.25-3.75-15.001,0L300,295c-6.25,6.25-16.25,6.25-25,0c-12.5-8.75-27.5-25-36.25-33.75
				s-25-25-33.75-36.25c-6.25-8.75-6.25-18.75,0-25l7.5-7.5c2.5-2.5,2.5-5,2.5-7.5s-1.25-5-2.5-7.5L195,160
				C192.5,157.5,190,156.25,187.5,156.25z"/>
		</g>
	</g>
</g>
</svg>
